<?xml version="1.0" encoding="UTF-8"?>
<svg viewBox="0 0 333.71 455.85" xmlns="http://www.w3.org/2000/svg">
 <g fill-rule="evenodd" stroke-width="1.25">
  <g fill="#e73900">
   <path d="m120.1 349.41c-16.436-24.727 3.4098-26.936-1.6524-60.788 12.415 15.97 15.881 35.56 21.093 41.354 3.5972 4.5504 5.3711 10.043 4.8876 15.686-0.048828 4.4663 5.711 9.8781 4.1361 14.048-8.3746-6.5735-22.779-2.2888-28.464-10.3z"/>
   <path d="m144.2 343.11c0.1109-4.8196-6.7166-6.9104-9.4629-10.674-4.5486-2.875-5.9895-7.3502-6.0897-11.757-0.36977-7.0478 6.9853-49.072 17.701-60.359-4.1066 17.331 6.088 40.417 12.386 48.054 4.2618 5.9343 5.8641 12.766 4.329 19.489-0.75418 5.3635-5.9559 8.5865-8.77 13.397-2.8146 2.8972-6.6454 3.1716-10.093 1.8489z"/>
   <path d="m156.42 372.49c1.6153-5.546-1.5813-14.337-2.588-19.481-2.731-4.6316-2.4671-10.224-1.1517-15.353 1.9364-8.263 2.2561-47.257 33.505-65.568-24.235 27.202-8.1428 49.31-5.5194 59.955 1.5326 8.09 0.74918 16.522-2.707 23.797-4.7716 10.045-17.512 15.58-21.539 16.649z"/>
  </g>
  <g fill="#e78c00">
   <path d="m143.65 368.63c0.09433-5.802-5.7163-8.3186-8.0538-12.85-3.8711-3.4609-5.0973-8.8483-5.1827-14.154-0.31442-8.4846 7.4081-53.343 13.601-72.662-4.2262 43.792 6.6443 48.656 12.005 57.85 3.6272 7.1437 4.9909 15.369 3.6844 23.462-0.64185 6.4572-3.409 12.343-5.8039 18.134-2.3956 3.4879-7.3157 1.8127-10.25 0.22043z"/>
   <path d="m125.66 358.54c-20.473-24.883 1.8341-26.616-3.8438-60.789 6.7431 16.108 12.335 28.208 14.79 39.645 3.6336 4.0387 16.189 28.693 15.436 33.162-7.9126-5.3325-20.488-4.8534-26.383-12.018z"/>
  </g>
  <path d="m133.01 362.12c-13.213-16.216-3.3456-25.737-3.4636-45.99 3.6526 17.726 15.206 22.094 15.058 32.742 1.9086 3.1853 11.902 25.9 11.067 28.819-4.4436-4.6014-17.654-9.4266-22.661-15.57z" fill="#e7e100"/>
  <path d="m151.19 354.59c-2.3334-3.2726-2.108-7.224-0.98401-10.848 1.6545-5.8384 8.9236-38.29 19.308-45.348-7.4994 13.34 2.3619 33.861 4.6034 41.382 1.3095 5.7161 1.6758 12.477-2.313 16.814-6.0258 6.552-13.632 10.368-17.894 11.282-2.7096 1.7988-1.8604-9.6485-2.7205-13.283z" fill="#e78c00"/>
  <g fill="#e7e100">
   <path d="m144.35 364.78c0.16742-3.7635-2.9666-5.5697-4.1567-8.5801-2.0521-2.3614-2.6166-5.895-2.5572-9.3412-0.002838-5.517-0.14497-39.907 5.1241-48.456-2.3321 13.439 6.4502 33.473 9.2038 39.6 1.8451 4.7447 2.4279 10.124 1.5504 15.339-0.48096 4.1725-2.1149 7.9107-3.543 11.599-1.3824 2.1929-4.045 0.95966-5.6212-0.16095z"/>
   <path d="m149.91 368.35c1.4287-2.866-0.34244-6.2591-0.21181-9.3832-0.75241-3.1525 0.037354-6.2964 1.2736-8.9801 1.9044-4.3576 5.2509-36.741 12.232-40.184-6.4269 9.1471 4.7336 33.604 4.7208 40.17-0.22958 4.9041-4.585 11.532-7.0579 15.098-1.8094 2.9924-5.3902 5.868-7.7563 7.8836-1.8145-1.5108-2.3833-2.7311-3.2008-4.6052z"/>
  </g>
  <g fill="#ffff9e">
   <path d="m143.32 364.87c-5.7276-9.4478-3.6025-19.987-1.1668-31.483 1.1097 7.8002 5.7319 17.266 8.3446 20.37 1.8034 2.4377 2.693 5.3804 2.4504 8.4039-0.024445 2.3926-1.1842 5.2922-1.9738 7.5258-4.1987-3.5214-4.8042-0.52478-7.6544-4.8166z"/>
   <path d="m149.67 360.88c3.4987-8.1565 0.035172-14.578 8.0538-20.977-2.3945 5.9322 3.082 15.299 2.486 18.547-1.0021 5.4622-7.9225 9.5276-9.6718 9.9486 0.41676-4.4915-2.3506-3.6392-0.868-7.5188z"/>
   <path d="m131.05 334.34c13.434 25.924 13.137 12.836 18.464 35.037-25.393-17.251-13.996-15.694-18.464-35.037z"/>
  </g>
 </g>
</svg>
