<?xml version="1.0" encoding="UTF-8"?>
<!DOCTYPE svg  PUBLIC '-//W3C//DTD SVG 1.1//EN'  'http://www.w3.org/Graphics/SVG/1.1/DTD/svg11.dtd'>
<svg enable-background="new 0 0 50 50" version="1.1" viewBox="0 0 50 50" xml:space="preserve" xmlns="http://www.w3.org/2000/svg" xmlns:xlink="http://www.w3.org/1999/xlink">
<symbol id="bf" viewBox="0 -26.112 22.7 26.087">
		<g clip-rule="evenodd" fill-rule="evenodd">
			<path d="m9.149-0.15h1.1c0.501 0.167 0.951 0.15 1.351-0.05 0.167-0.067 0.517-0.317 1.05-0.75 0.867-0.7 1.784-1.75 2.75-3.15 1-1.367 1.9-2.434 2.7-3.2 0.566-0.5 1.55-1.083 2.95-1.75 0.5-0.367 0.85-0.717 1.05-1.05 0.2-0.4 0.267-0.9 0.2-1.5-0.1-1.034-0.284-2.117-0.55-3.25-0.167-0.767-0.233-1.233-0.2-1.4 0.033-0.2 0.2-0.466 0.5-0.8 0.233-0.367 0.383-0.667 0.45-0.9 0.2-0.8 0.25-1.65 0.15-2.55-0.133-1.033-0.517-1.733-1.15-2.1-0.466-0.267-1.25-0.467-2.35-0.6-0.533-0.034-0.917-0.05-1.15-0.05-0.433-0.033-0.8-0.133-1.1-0.3-0.6-0.333-1.483-0.917-2.65-1.75-0.9-0.566-1.966-0.833-3.2-0.8-0.434 0.033-1.733 0.216-3.9 0.55-1.267 0.133-2.116 0.333-2.55 0.6-0.7 0.733-1.267 1.233-1.7 1.5-0.5 0.233-0.883 0.417-1.15 0.55-0.466 0.233-0.783 0.517-0.95 0.85-0.067 0.167-0.117 0.35-0.15 0.55 0.034 0.267 0.034 0.467 0 0.6-0.3 1.367-0.483 2.383-0.55 3.05-0.167 1.1-0.05 2.1 0.35 3 0.6 1.233 0.917 2 0.95 2.3 0.333 2.167 0.583 3.45 0.75 3.85 0.233 0.6 0.7 1.267 1.4 2 0.833 0.767 1.416 1.334 1.75 1.7 0.566 0.534 1.233 1.3 2 2.3 0.366 0.6 0.633 1.066 0.8 1.4 0.366 0.6 0.716 0.984 1.049 1.15z" fill="#81675C"/>
				<path d="m13.5-4.2c0.133-0.534 0.317-0.95 0.55-1.25l0.3-0.25c-0.066-1.767 0.05-2.983 0.35-3.65 0.133-0.333 0.533-1.017 1.2-2.05 0.5-0.833 0.833-1.55 1-2.15 0.267-1 0.417-1.783 0.45-2.35 0.066-0.833-0.083-1.6-0.45-2.3-0.233-0.5-0.55-1.184-0.95-2.05-0.4-0.7-0.867-1.216-1.4-1.55-0.134 0.7-0.2 1.5-0.2 2.4-0.066-1.066-0.5-2.6-1.3-4.6h-0.65l0.05 3.35c1.267 0.667 2.083 1.567 2.45 2.7 0.2 0.633 0.3 1.933 0.3 3.9-0.034 0.6-0.25 1.283-0.65 2.05-0.534 1.1-0.85 1.784-0.95 2.05l-0.1 0.3v5.45z" fill="#8C8D8A"/>
				<path d="m16.35-8.65l0.8-0.5c1.667-1.066 2.617-2.617 2.85-4.65l-0.1-2.6-0.6 1.45 0.05 1.15c0 1.167-0.25 2.1-0.75 2.8-0.8 0.833-1.483 1.55-2.05 2.15l-0.2 0.2z" fill="#8C8D8A"/>
				<path d="m9.8-24.3c-2.6-0.467-4.384-0.633-5.35-0.5l-0.7 0.6c0.233 0.1 0.9 0.333 2 0.7 1.434 0.467 2.617 0.95 3.55 1.45l1.55 0.7-0.4-0.75-0.25-1.1-0.4-1.1z" fill="#8C8D8A"/>
				<path d="m14.6-22.1c1.467 0.133 2.617 0.933 3.45 2.4l0.2-1c0-0.833-0.283-1.617-0.85-2.35 0.067 0.4 0.05 0.767-0.05 1.1-0.367-0.067-0.8-0.3-1.3-0.7-0.634-0.533-1.05-0.85-1.25-0.95l-0.2 1.5z" fill="#8C8D8A"/>
				<path d="m8.6-2.7c0.533 0.433 1.066 0.633 1.6 0.6 0.767-0.034 1.267-0.434 1.5-1.2 0.1-0.4 0.15-1.117 0.15-2.15l0.05-1.3c-0.639 0.767-0.939 1.367-0.9 1.8l-0.25-2.15-0.25-0.8-0.1-0.05-0.3 1.95c-0.1 1.3-0.284 2.083-0.55 2.35-0.067-0.1-0.417-1.066-1.05-2.9-0.367-1.066-0.917-1.816-1.65-2.25-0.767-0.434-1.233-1.1-1.4-2-0.067-0.434-0.067-1.333 0-2.7 0.033-0.167 0.183-0.683 0.45-1.55 0.2-0.6 0.233-1.1 0.1-1.5-0.133-0.467-0.367-0.733-0.7-0.8-0.467 0-0.884-0.017-1.25-0.05h-0.1c-0.7 0.333-1.184 0.65-1.45 0.95-0.367 0.367-0.583 0.883-0.65 1.55-0.033 0.267 0 0.567 0.1 0.9l0.2 0.75c-0.067 1-0.05 1.75 0.05 2.25 0.033 0.167 0.316 0.867 0.85 2.1 0.033 0.067 0.1 0.133 0.2 0.2 0.133 0.1 0.2 0.167 0.2 0.2l0.05 0.2c0.5-0.367 1.333-0.45 2.5-0.25 0.566 0.133 1.1 0.45 1.6 0.95 0.467 0.5 0.75 1.017 0.85 1.55-1.1-0.2-1.9-0.267-2.4-0.2l-0.1 0.7c0.466 0.367 0.95 0.867 1.45 1.5 0.566 0.7 0.966 1.15 1.2 1.35z" fill="#AA907D"/>
				<path d="m12.7-12.6c-0.034-0.233-0.217-0.567-0.55-1-0.267-0.4-0.4-0.717-0.4-0.95 0.9 1.066 1.45 2.217 1.65 3.45 0.134-1.134 0.1-1.983-0.1-2.55-0.134-0.4-0.417-0.767-0.85-1.1-0.567-0.466-0.934-0.816-1.1-1.05-0.467-0.633-1.133-1.8-2-3.5-0.867-1.333-1.95-1.9-3.25-1.7 0.934-0.033 1.566 0.684 1.9 2.15l0.15 0.15c0.2 0.2 0.3 0.45 0.3 0.75 0.533-0.1 0.983 0.183 1.35 0.85 0.3 0.533 0.433 1.083 0.4 1.65l-0.85-0.15c0.233 0.4 0.733 1.116 1.5 2.15 0.633 0.833 1.033 1.466 1.2 1.9l0.4 1.1c0.266-1.1 0.35-1.817 0.25-2.15z" fill="#AA907D"/>
				<path d="m3.899-17.4c-0.833-0.133-1.333-0.566-1.5-1.3-0.433 0.2-0.8 0.65-1.1 1.35 0.301-0.033 1.167-0.05 2.6-0.05z" fill="#AA907D"/>
				<polygon points="9.05 -14.45 9.05 -15.7 8.8 -15.75 8.649 -16.3" fill="#AA907D"/>
				<path d="m1.05-17.3c-0.333-0.3-0.534-0.9-0.6-1.8l-0.05-0.5c-0.233 1-0.366 1.883-0.4 2.65 0.466-0.2 0.816-0.317 1.05-0.35z" fill="#AA907D"/>
				<path d="m10.5-7.9l-0.1-0.1c-0.6-1-0.966-2.283-1.1-3.85l-0.25-0.8c-0.067-0.566-0.067-1.167 0-1.8l-0.4-1.85c-0.267-0.667-0.4-1.2-0.4-1.6l0.2-0.05c0-0.3-0.1-0.55-0.3-0.75l-0.15-0.15c-0.167-0.2-0.466-0.384-0.9-0.55-0.533-0.433-1.1-1.033-1.7-1.8-0.366-0.434-0.9-1.117-1.6-2.05l-0.5-0.5-0.4 0.3c-0.5 0.233-0.883 0.417-1.15 0.55-0.466 0.233-0.783 0.517-0.95 0.85-0.067 0.167-0.117 0.35-0.15 0.55 0.034 0.267 0.034 0.467 0 0.6l-0.25 1.3 0.05 0.5c0.066 0.9 0.267 1.5 0.6 1.8l0.25-0.05c0.3-0.7 0.667-1.15 1.1-1.35 0.434-0.2 1-0.133 1.7 0.2 1.333 0.567 2.25 1.4 2.75 2.5 0.167 0.367 0.267 0.917 0.3 1.65 0.067 0.8 0.167 1.383 0.3 1.75 0.566 1.466 1.55 3.017 2.95 4.65l0.1 0.05z" fill="#56443D"/>
				<path d="m13.5-4.2l0.05 2.4c0.566-0.566 1.183-1.333 1.85-2.3 1-1.367 1.9-2.434 2.7-3.2 0.566-0.5 1.55-1.083 2.95-1.75 0.5-0.367 0.85-0.717 1.05-1.05 0.2-0.4 0.267-0.9 0.2-1.5-0.1-1.034-0.284-2.117-0.55-3.25-0.167-0.767-0.233-1.233-0.2-1.4 0.033-0.2 0.2-0.466 0.5-0.8 0.233-0.367 0.383-0.667 0.45-0.9 0.2-0.8 0.25-1.65 0.15-2.55-0.133-1.033-0.517-1.733-1.15-2.1-0.466-0.267-1.25-0.467-2.35-0.6l-1.5-0.1 0.3 0.9c0.367 1.167 0.55 2.184 0.55 3.05v0.6c0.4 1.034 0.65 2.134 0.75 3.3 0.267-0.5 0.467-0.934 0.6-1.3l0.05 0.35v0.2c0.134 0.667 0.167 1.466 0.1 2.4-0.233 2.033-1.183 3.583-2.85 4.65l-0.8 0.5c-0.533 0.633-0.867 1.333-1 2.1-0.1 0.467-0.15 1.3-0.15 2.5l-0.85-1.1v-0.55l-0.3 0.25c-0.234 0.3-0.417 0.717-0.55 1.25z" fill="#56443D"/>
				<path d="m10.75-7.1l0.25 2.15c-0.039-0.433 0.261-1.033 0.9-1.8 0.067-0.667 0.233-1.833 0.5-3.5l0.05-0.2-0.4-1.1c-0.167-0.434-0.567-1.066-1.2-1.9-0.767-1.034-1.267-1.75-1.5-2.15l-0.3-0.1v1.25c-0.067 0.633-0.067 1.233 0 1.8l0.9 2.45c0.066 0.167 0.233 0.867 0.5 2.1v0.15l0.05 0.05 0.25 0.8z" fill="#8C8D8A"/>
				<path d="m14.35-5.7v0.55l0.85 1.1c0-1.2 0.05-2.033 0.15-2.5 0.133-0.767 0.467-1.467 1-2.1l0.2-0.2c0.566-0.6 1.25-1.317 2.05-2.15 0.5-0.7 0.75-1.633 0.75-2.8l-0.1-1.65c-0.1-1.167-0.35-2.267-0.75-3.3l-0.45-0.95c-0.833-1.467-1.983-2.267-3.45-2.4l-0.05 0.3c0.533 0.333 1 0.85 1.4 1.55 0.4 0.867 0.716 1.55 0.95 2.05 0.367 0.7 0.517 1.466 0.45 2.3-0.033 0.567-0.184 1.35-0.45 2.35-0.167 0.6-0.5 1.316-1 2.15-0.667 1.034-1.066 1.717-1.2 2.05-0.301 0.667-0.417 1.884-0.35 3.65z" fill="#464D53"/>
				<polygon points="12.399 -25.65 12.399 -24 13.05 -24" fill="#464D53"/>
				<path d="m4.45-24.8c0.966-0.133 2.75 0.033 5.35 0.5l-0.95-1.5-1.7 0.25c-1.267 0.133-2.116 0.333-2.55 0.6l-0.15 0.15z" fill="#464D53"/>
				<path d="m17.35-21.95c0.1-0.333 0.117-0.7 0.05-1.1l-0.05-0.3-0.45-0.2c-0.2-0.133-0.85-0.566-1.95-1.3l-0.15 1.25c0.2 0.1 0.616 0.417 1.25 0.95 0.5 0.4 0.933 0.633 1.3 0.7z" fill="#464D53"/>
				<path d="m11.6-0.2c0.167-0.067 0.517-0.317 1.05-0.75l0.9-0.85-0.15-9.3c-0.2-1.233-0.75-2.384-1.65-3.45 0 0.233 0.133 0.55 0.4 0.95 0.333 0.433 0.517 0.767 0.55 1 0.1 0.333 0.017 1.05-0.25 2.15l-0.05 0.2c-0.267 1.667-0.433 2.833-0.5 3.5l-0.05 1.3c0 1.033-0.05 1.75-0.15 2.15-0.233 0.767-0.733 1.167-1.5 1.2-0.534 0.034-1.067-0.167-1.6-0.6-0.233-0.2-0.633-0.65-1.2-1.35-0.5-0.633-0.983-1.133-1.45-1.5l-0.051 1.15 1.4 1.7c0.366 0.6 0.633 1.066 0.8 1.4 0.367 0.6 0.717 0.983 1.05 1.15h1.1c0.501 0.167 0.951 0.15 1.351-0.05z" fill="#CBBCB0"/>
				<path d="m3.95-6.35l-0.7-1.3c-0.067-0.233 0.016-0.45 0.25-0.65l-0.05-0.2c0-0.033-0.067-0.1-0.2-0.2-0.1-0.067-0.167-0.133-0.2-0.2-0.534-1.233-0.817-1.933-0.85-2.1-0.1-0.5-0.117-1.25-0.05-2.25l-0.2-0.75c-0.1-0.333-0.133-0.633-0.1-0.9 0.066-0.667 0.283-1.183 0.65-1.55 0.267-0.3 0.75-0.617 1.45-0.95h-0.05c-1.433 0-2.3 0.017-2.6 0.05l-0.25 0.05c-0.234 0.033-0.584 0.15-1.05 0.35 0 0.767 0.15 1.466 0.45 2.1 0.6 1.233 0.917 2 0.95 2.3 0.333 2.167 0.583 3.45 0.75 3.85 0.266 0.7 0.866 1.484 1.8 2.35z" fill="#CBBCB0"/>
				<path d="m3.95-6.35l1.95 1.95 0.15-1.85c0.5-0.066 1.3 0 2.4 0.2-0.1-0.533-0.384-1.05-0.85-1.55-0.5-0.5-1.034-0.817-1.6-0.95-1.167-0.2-2-0.117-2.5 0.25-0.234 0.2-0.317 0.417-0.25 0.65l0.7 1.3z" fill="#CBBCB0"/>
				<path d="m8.8-15.75l0.25 0.05 0.3 0.1 0.85 0.15c0.033-0.567-0.1-1.117-0.4-1.65-0.367-0.667-0.817-0.95-1.35-0.85l-0.2 0.05c0 0.4 0.133 0.934 0.4 1.6l0.15 0.55z" fill="#CBBCB0"/>
				<path d="m11.95-18.2c0.281 1 0.431 1.908 0.45 2.725v-10.175l0.65 1.65c0.8 2 1.233 3.534 1.3 4.6 0-0.9 0.066-1.7 0.2-2.4l0.4-3.05c-0.267-0.233-0.5-0.384-0.7-0.45-0.9-0.566-1.966-0.833-3.2-0.8l-2.2 0.3 0.95 1.5 0.4 1.1 0.25 1.1 0.6 1.15c0.5 1.367 0.8 2.283 0.9 2.75z" fill="#56443D"/>
				<radialGradient id="ak" cx="3.7998" cy="-14.4" r="2.3125" gradientTransform="matrix(1 0 0 -1 0 -28.8)" gradientUnits="userSpaceOnUse">
				<stop stop-opacity=".2784" offset=".1647"/>
				<stop stop-opacity=".4471" offset="1"/>
			</radialGradient>
			<path d="m3.399-12.2h0.75c0.467 0.033 0.684-0.284 0.65-0.95-0.034-0.7-0.3-1.066-0.8-1.1-0.633-0.033-1 0.317-1.1 1.05-0.133 0.734 0.034 1.067 0.5 1z" fill="url(#ak)"/>
				<radialGradient id="au" cx="6.2998" cy="-11.55" r="1.5375" gradientTransform="matrix(1 0 0 -1 0 -23.1)" gradientUnits="userSpaceOnUse">
				<stop stop-opacity=".2784" offset=".1647"/>
				<stop stop-opacity=".4471" offset="1"/>
			</radialGradient>
			<path d="m5.85-10l1.1-0.35c0.066-0.9-0.2-1.25-0.8-1.05-0.567 0.167-0.667 0.633-0.3 1.4z" fill="url(#au)"/>
				<radialGradient id="av" cx="9.0498" cy="-22.55" r="1.975" gradientTransform="matrix(1 0 0 -1 0 -45.1)" gradientUnits="userSpaceOnUse">
				<stop stop-opacity=".2784" offset=".1647"/>
				<stop stop-opacity=".4471" offset="1"/>
			</radialGradient>
			<path d="m8.8-19.6l0.55 0.35c0.333-0.133 0.5-0.616 0.5-1.45s-0.167-1.333-0.5-1.5c-0.667-0.333-1.033-0.067-1.1 0.8s0.116 1.467 0.55 1.8z" fill="url(#av)"/>
				<radialGradient id="aw" cx="2.6997" cy="-22.45" r="2.35" gradientTransform="matrix(1 0 0 -1 0 -44.899)" gradientUnits="userSpaceOnUse">
				<stop stop-opacity=".2784" offset=".1647"/>
				<stop stop-opacity=".4471" offset="1"/>
			</radialGradient>
			<path d="m2.3-20.15l1.3-0.6c0-0.2 0.017-0.483 0.05-0.85 0-0.3-0.116-0.517-0.35-0.65-0.134-0.066-0.367-0.066-0.7 0-0.3 0.1-0.517 0.217-0.65 0.35-0.233 0.233-0.3 0.55-0.2 0.95 0.066 0.367 0.25 0.634 0.55 0.8z" fill="url(#aw)"/>
				<radialGradient id="ax" cx="16.1" cy="-20.8" r="1.85" gradientTransform="matrix(1 0 0 -1 0 -41.6)" gradientUnits="userSpaceOnUse">
				<stop stop-opacity=".2784" offset=".1647"/>
				<stop stop-opacity=".4471" offset="1"/>
			</radialGradient>
			<path d="m15.649-17.75l1.1-0.2c0-0.267 0.034-0.717 0.1-1.35 0.033-0.566-0.017-0.983-0.15-1.25-0.5 0-0.9 0.383-1.2 1.15-0.266 0.733-0.216 1.284 0.15 1.65z" fill="url(#ax)"/>
				<radialGradient id="ay" cx="14.95" cy="-15.05" r="2.2375" gradientTransform="matrix(1 0 0 -1 0 -30.1)" gradientUnits="userSpaceOnUse">
				<stop stop-opacity=".2784" offset=".1647"/>
				<stop stop-opacity=".4471" offset="1"/>
			</radialGradient>
			<path d="m14.35-12l1.1-1.15c0.367-0.4 0.483-0.95 0.35-1.65-0.7-0.167-1.233 0.15-1.6 0.95-0.334 0.8-0.284 1.417 0.15 1.85z" fill="url(#ay)"/>
				<radialGradient id="az" cx="14.85" cy="-10.9" r="1.6375" gradientTransform="matrix(1 0 0 -1 0 -21.8)" gradientUnits="userSpaceOnUse">
				<stop stop-opacity=".2784" offset=".1647"/>
				<stop stop-opacity=".4471" offset="1"/>
			</radialGradient>
			<path d="m14.55-9.25l0.9-0.75c0.267-0.933 0.017-1.116-0.75-0.55-0.767 0.533-0.817 0.967-0.15 1.3z" fill="url(#az)"/>
				<radialGradient id="ba" cx="18.899" cy="-17.5" r="1.7619" gradientTransform="matrix(1 0 0 -1 0 -35)" gradientUnits="userSpaceOnUse">
				<stop stop-opacity=".2784" offset=".1647"/>
				<stop stop-opacity=".4471" offset="1"/>
			</radialGradient>
			<path d="m18.25-15l1.3 0.2c0-0.2 0.017-0.75 0.05-1.65-0.066-0.733-0.383-0.983-0.95-0.75-0.3 0.1-0.45 0.417-0.45 0.95 0.033 0.6 0.05 1.017 0.05 1.25z" fill="url(#ba)"/>
				<radialGradient id="bb" cx="21.1" cy="-21" r="1.55" gradientTransform="matrix(1 0 0 -1 0 -42)" gradientUnits="userSpaceOnUse">
				<stop stop-opacity=".2784" offset=".1647"/>
				<stop stop-opacity=".4471" offset="1"/>
			</radialGradient>
			<path d="m20.45-20.55l1.3 0.55c0.034-0.533-0.183-0.85-0.65-0.95s-0.684 0.033-0.65 0.4z" fill="url(#bb)"/>
				<radialGradient id="bc" cx="19.649" cy="-10.8" r="1.975" gradientTransform="matrix(1 0 0 -1 0 -21.6)" gradientUnits="userSpaceOnUse">
				<stop stop-opacity=".2784" offset=".1647"/>
				<stop stop-opacity=".4471" offset="1"/>
			</radialGradient>
			<path d="m19.55-8.85l0.9-1.3c-0.333-0.833-0.8-0.783-1.4 0.15-0.6 0.967-0.434 1.35 0.5 1.15z" fill="url(#bc)"/>
				<linearGradient id="bd" x1="2.9619" x2="28.737" y1="-21.075" y2="-21.075" gradientUnits="userSpaceOnUse">
					<stop stop-opacity=".2" offset=".8157"/>
					<stop stop-opacity=".2" offset=".9804"/>
				</linearGradient>
				<path d="m11.55-16.1c0.267-0.867 0.5-2.117 0.7-3.75-0.333-0.634-0.617-1.733-0.85-3.3-0.033-0.167-0.133-0.65-0.3-1.45-0.2-0.767-0.383-1.25-0.55-1.45l-0.3 0.05h0.05c0.3 0.233 0.5 0.483 0.6 0.75 0 0.034 0.034 0.35 0.1 0.95 0.267 2.233 0.4 3.5 0.4 3.8-0.066 0.967-0.116 1.717-0.15 2.25-0.034 1 0.066 1.717 0.3 2.15z" fill="url(#bd)"/>
				<linearGradient id="be" x1="2.9619" x2="28.737" y1="-12.425" y2="-12.425" gradientUnits="userSpaceOnUse">
					<stop stop-opacity=".2" offset=".8157"/>
					<stop stop-opacity=".2" offset=".9804"/>
				</linearGradient>
				<path d="m12.7-1.4l0.55-0.1 0.55-0.55v-4c0.8-0.066 1.483-0.383 2.05-0.95 0.3-0.333 0.783-0.883 1.45-1.65 0.5-0.433 0.9-1.05 1.2-1.85 0.167-0.466 0.4-1.2 0.7-2.2 0.3-0.867 0.417-1.483 0.35-1.85-0.034-0.233-0.184-0.767-0.45-1.6-0.2-0.633-0.3-1.183-0.3-1.65 0-0.066-0.05-0.35-0.15-0.85-0.066-0.433-0.066-0.7 0-0.8 0.1-0.167 0.3-0.317 0.6-0.45 0.267-0.1 0.417-0.333 0.45-0.7 0.133-0.7 0.117-1.55-0.05-2.55l-0.5-0.05c-0.466 0-0.816-0.017-1.05-0.05-0.4 0-0.733-0.066-1-0.2 0.133 0.8 0.2 2.633 0.2 5.5 0.033 0.867 0.05 1.533 0.05 2 0.033 0.8-0.05 1.433-0.25 1.9-0.333 0.733-0.816 1.35-1.45 1.85-0.4 0.033-0.65 0.216-0.75 0.55 0.134 0.5 0.2 0.8 0.2 0.9 0.1 0.5 0.083 0.867-0.05 1.1-0.067 0.233-0.233 0.4-0.5 0.5-0.367 0.167-0.567 0.267-0.6 0.3-0.267 0.267-0.4 0.65-0.4 1.15 0.033 0.633 0.05 1.1 0.05 1.4 0 1.734-0.3 3.367-0.9 4.9z" fill="url(#be)"/>
				<linearGradient id="ad" x1="2.9619" x2="28.737" y1="-22.575" y2="-22.575" gradientUnits="userSpaceOnUse">
					<stop stop-opacity=".2" offset=".8157"/>
					<stop stop-opacity=".2" offset=".9804"/>
				</linearGradient>
				<path d="m6.95-20.95c-0.267 0.066-0.7-0.017-1.3-0.25 0.567 0.966 1.1 1.55 1.6 1.75 0.133-0.434 0.167-1.1 0.1-2-0.033-0.967 0-1.667 0.1-2.1 0.066-0.167 0.2-0.517 0.4-1.05 0.2-0.434 0.316-0.784 0.35-1.05v-0.05l-1.05 0.15h-0.2c0.066 2.067 0.066 3.6 0 4.6z" fill="url(#ad)"/>
				<linearGradient id="ae" x1=".062" x2="29.937" y1="-22.725" y2="-22.725" gradientUnits="userSpaceOnUse">
					<stop stop-opacity=".2" offset=".8157"/>
					<stop stop-opacity=".2" offset=".9804"/>
				</linearGradient>
				<path d="m5.649-21.2l-1.849-3.05c-0.3 0.367-0.6 0.634-0.9 0.8l-0.75 0.4 1.1 0.5c0.399 0.167 1.2 0.617 2.399 1.35z" fill="url(#ae)"/>
				<linearGradient id="af" x1=".062" x2="29.937" y1="-22.7" y2="-22.7" gradientUnits="userSpaceOnUse">
					<stop stop-opacity=".2" offset=".8157"/>
					<stop stop-opacity=".2" offset=".9804"/>
				</linearGradient>
				<path d="m12.25-19.85c0.034 0.167 0.117 0.316 0.25 0.45 0.167-0.133 0.3-0.6 0.4-1.4 0.034-0.434 0.083-0.967 0.15-1.6 0.066-0.233 0.15-0.683 0.25-1.35 0.133-0.566 0.316-0.983 0.55-1.25 0.1-0.167 0.25-0.267 0.45-0.3h-0.05c-0.4-0.3-0.9-0.533-1.5-0.7-0.367 0.367-0.55 1.1-0.55 2.2 0.066 1.2 0.1 1.967 0.1 2.3l-0.05 1.65z" fill="url(#af)"/>
				<linearGradient id="ag" x1="2.9619" x2="28.737" y1="-23.239" y2="-23.239" gradientUnits="userSpaceOnUse">
					<stop stop-opacity=".2" offset=".8157"/>
					<stop stop-opacity=".2" offset=".9804"/>
				</linearGradient>
				<path d="m3.8-24.25l1.85 3.05c0.6 0.233 1.034 0.316 1.3 0.25 0.066-1 0.066-2.534 0-4.6-1.133 0.133-1.917 0.333-2.35 0.6l-0.8 0.7z" fill="url(#ag)"/>
				<linearGradient id="ah" x1=".062" x2="29.937" y1="-23.239" y2="-23.239" gradientUnits="userSpaceOnUse">
					<stop stop-opacity=".2" offset=".8157"/>
					<stop stop-opacity=".2" offset=".9804"/>
				</linearGradient>
				<path d="m3.8-24.25l1.85 3.05c0.6 0.233 1.034 0.316 1.3 0.25 0.066-1 0.066-2.534 0-4.6-1.133 0.133-1.917 0.333-2.35 0.6l-0.8 0.7z" fill="url(#ah)"/>
				<linearGradient id="ai" x1="2.9619" x2="28.737" y1="-22.981" y2="-22.981" gradientUnits="userSpaceOnUse">
					<stop stop-opacity=".2" offset=".8157"/>
					<stop stop-opacity=".2" offset=".9804"/>
				</linearGradient>
				<path d="m12.75-26c-0.6-0.1-1.167-0.133-1.7-0.1l-0.5 0.05c0.167 0.2 0.35 0.684 0.55 1.45 0.167 0.8 0.267 1.283 0.3 1.45 0.233 1.567 0.517 2.667 0.85 3.3l0.05-1.65c0-0.333-0.034-1.1-0.1-2.3 0-1.1 0.183-1.833 0.55-2.2z" fill="url(#ai)"/>
				<linearGradient id="aj" x1=".062" x2="29.937" y1="-22.981" y2="-22.981" gradientUnits="userSpaceOnUse">
					<stop stop-opacity=".2" offset=".8157"/>
					<stop stop-opacity=".2" offset=".9804"/>
				</linearGradient>
				<path d="m12.75-26c-0.6-0.1-1.167-0.133-1.7-0.1l-0.5 0.05c0.167 0.2 0.35 0.684 0.55 1.45 0.167 0.8 0.267 1.283 0.3 1.45 0.233 1.567 0.517 2.667 0.85 3.3l0.05-1.65c0-0.333-0.034-1.1-0.1-2.3 0-1.1 0.183-1.833 0.55-2.2z" fill="url(#aj)"/>
				<linearGradient id="al" x1="2.9619" x2="28.737" y1="-12.6" y2="-12.6" gradientUnits="userSpaceOnUse">
					<stop stop-opacity=".2" offset=".8157"/>
					<stop stop-opacity=".2" offset=".9804"/>
				</linearGradient>
				<path d="m13.8-6.05v4c0.4-0.434 0.933-1.117 1.6-2.05 1-1.367 1.9-2.434 2.7-3.2 0.566-0.5 1.55-1.083 2.95-1.75 0.5-0.367 0.85-0.717 1.05-1.05 0.2-0.4 0.267-0.9 0.2-1.5-0.1-1.034-0.284-2.117-0.55-3.25l-0.05-0.15c-0.367-0.233-0.85-1.05-1.45-2.45-0.2-0.467-0.5-1.184-0.9-2.15 0.1 0.033 0.367 0.133 0.8 0.3 0.333 0.133 0.617 0.217 0.85 0.25 0.2-0.6 0.317-1.033 0.35-1.3 0-0.4-0.133-0.8-0.4-1.2-0.233-0.367-0.65-0.883-1.25-1.55l-0.05-0.05c0.167 1 0.184 1.85 0.05 2.55-0.034 0.366-0.184 0.6-0.45 0.7-0.3 0.133-0.5 0.284-0.6 0.45-0.066 0.1-0.066 0.367 0 0.8 0.1 0.5 0.15 0.784 0.15 0.85 0 0.467 0.1 1.017 0.3 1.65 0.267 0.833 0.417 1.367 0.45 1.6 0.066 0.367-0.05 0.983-0.35 1.85-0.3 1-0.534 1.733-0.7 2.2-0.3 0.8-0.7 1.417-1.2 1.85-0.667 0.767-1.15 1.317-1.45 1.65-0.567 0.567-1.25 0.884-2.05 0.95z" fill="url(#al)"/>
				<linearGradient id="am" x1=".062" x2="29.937" y1="-12.6" y2="-12.6" gradientUnits="userSpaceOnUse">
					<stop stop-opacity=".2" offset=".8157"/>
					<stop stop-opacity=".2" offset=".9804"/>
				</linearGradient>
				<path d="m13.8-6.05v4c0.4-0.434 0.933-1.117 1.6-2.05 1-1.367 1.9-2.434 2.7-3.2 0.566-0.5 1.55-1.083 2.95-1.75 0.5-0.367 0.85-0.717 1.05-1.05 0.2-0.4 0.267-0.9 0.2-1.5-0.1-1.034-0.284-2.117-0.55-3.25l-0.05-0.15c-0.367-0.233-0.85-1.05-1.45-2.45-0.2-0.467-0.5-1.184-0.9-2.15 0.1 0.033 0.367 0.133 0.8 0.3 0.333 0.133 0.617 0.217 0.85 0.25 0.2-0.6 0.317-1.033 0.35-1.3 0-0.4-0.133-0.8-0.4-1.2-0.233-0.367-0.65-0.883-1.25-1.55l-0.05-0.05c0.167 1 0.184 1.85 0.05 2.55-0.034 0.366-0.184 0.6-0.45 0.7-0.3 0.133-0.5 0.284-0.6 0.45-0.066 0.1-0.066 0.367 0 0.8 0.1 0.5 0.15 0.784 0.15 0.85 0 0.467 0.1 1.017 0.3 1.65 0.267 0.833 0.417 1.367 0.45 1.6 0.066 0.367-0.05 0.983-0.35 1.85-0.3 1-0.534 1.733-0.7 2.2-0.3 0.8-0.7 1.417-1.2 1.85-0.667 0.767-1.15 1.317-1.45 1.65-0.567 0.567-1.25 0.884-2.05 0.95z" fill="url(#am)"/>
				<linearGradient id="an" x1="2.9619" x2="28.737" y1="-19.05" y2="-19.05" gradientUnits="userSpaceOnUse">
					<stop stop-opacity=".2" offset=".8157"/>
					<stop stop-opacity=".2" offset=".9804"/>
				</linearGradient>
				<path d="m20.25-17.45c0.6 1.4 1.083 2.216 1.45 2.45-0.133-0.6-0.184-1.017-0.15-1.25 0.033-0.2 0.2-0.466 0.5-0.8 0.233-0.367 0.383-0.667 0.45-0.9 0.2-0.8 0.25-1.65 0.15-2.55-0.1-0.933-0.417-1.6-0.95-2-0.434-0.3-1.1-0.5-2-0.6 0.6 0.667 1.017 1.183 1.25 1.55 0.267 0.4 0.4 0.8 0.4 1.2-0.033 0.267-0.15 0.7-0.35 1.3-0.233-0.033-0.517-0.117-0.85-0.25-0.433-0.167-0.7-0.267-0.8-0.3 0.4 0.967 0.7 1.683 0.9 2.15z" fill="url(#an)"/>
				<linearGradient id="ao" x1=".0747" x2="29.925" y1="-19.05" y2="-19.05" gradientUnits="userSpaceOnUse">
					<stop stop-opacity=".2" offset=".8157"/>
					<stop stop-opacity=".2" offset=".9804"/>
				</linearGradient>
				<path d="m20.25-17.45c0.6 1.4 1.083 2.216 1.45 2.45-0.133-0.6-0.184-1.017-0.15-1.25 0.033-0.2 0.2-0.466 0.5-0.8 0.233-0.367 0.383-0.667 0.45-0.9 0.2-0.8 0.25-1.65 0.15-2.55-0.1-0.933-0.417-1.6-0.95-2-0.434-0.3-1.1-0.5-2-0.6 0.6 0.667 1.017 1.183 1.25 1.55 0.267 0.4 0.4 0.8 0.4 1.2-0.033 0.267-0.15 0.7-0.35 1.3-0.233-0.033-0.517-0.117-0.85-0.25-0.433-0.167-0.7-0.267-0.8-0.3 0.4 0.967 0.7 1.683 0.9 2.15z" fill="url(#ao)"/>
				<linearGradient id="ap" x1="19.374" x2="27.324" y1="-19.05" y2="-19.05" gradientUnits="userSpaceOnUse">
					<stop stop-opacity=".2" offset=".8157"/>
					<stop stop-opacity=".2" offset=".9804"/>
				</linearGradient>
				<path d="m20.25-17.45c0.6 1.4 1.083 2.216 1.45 2.45-0.133-0.6-0.184-1.017-0.15-1.25 0.033-0.2 0.2-0.466 0.5-0.8 0.233-0.367 0.383-0.667 0.45-0.9 0.2-0.8 0.25-1.65 0.15-2.55-0.1-0.933-0.417-1.6-0.95-2-0.434-0.3-1.1-0.5-2-0.6 0.6 0.667 1.017 1.183 1.25 1.55 0.267 0.4 0.4 0.8 0.4 1.2-0.033 0.267-0.15 0.7-0.35 1.3-0.233-0.033-0.517-0.117-0.85-0.25-0.433-0.167-0.7-0.267-0.8-0.3 0.4 0.967 0.7 1.683 0.9 2.15z" fill="url(#ap)"/>
				<linearGradient id="aq" x1="-2.6006" x2="15.099" y1="-4.2627" y2="-4.2627" gradientUnits="userSpaceOnUse">
					<stop stop-color="#fff" stop-opacity=".2" offset=".0627"/>
					<stop stop-color="#fff" stop-opacity=".2" offset=".1647"/>
				</linearGradient>
				<path d="m8.1-1.3c0.367 0.6 0.717 0.983 1.05 1.15h1.1c0.5 0.167 0.934 0.167 1.3 0 0.2-0.1 0.533-0.333 1-0.7l-0.05-0.05 0.2-0.5c-1.2 0.133-2.2 0.083-3-0.15-0.967-0.267-1.817-0.867-2.55-1.8-0.533-0.733-0.866-1.15-1-1.25-0.1-0.1-0.35-0.3-0.75-0.6-0.3-0.266-0.534-0.5-0.7-0.7-0.434-0.666-0.334-1.066 0.3-1.2 0.333-0.1 0.967-0.15 1.9-0.15-0.434-0.267-1.067-0.483-1.9-0.65-1.067-0.2-1.717-0.333-1.95-0.4l-0.8-0.2c0.233 0.567 0.7 1.2 1.4 1.9 0.8 0.734 1.35 1.267 1.65 1.6 0.566 0.534 1.233 1.3 2 2.3 0.366 0.6 0.633 1.067 0.8 1.4z" fill="url(#aq)"/>
				<linearGradient id="ar" x1="-2.6006" x2="15.099" y1="-18.093" y2="-18.093" gradientUnits="userSpaceOnUse">
					<stop stop-color="#fff" stop-opacity=".2" offset=".0627"/>
					<stop stop-color="#fff" stop-opacity=".2" offset=".1647"/>
				</linearGradient>
				<path d="m3.25-17.45c-0.291-0.194 0.56-0.294 2.55-0.3-0.905-0.024-1.855-0.208-2.85-0.55-1-0.344-1.108-0.527-0.325-0.55-0.999 7e-3 -1.641 0.073-1.925 0.2l-0.55 0.25-0.1 0.85c0.133 0 0.35 0.033 0.65 0.1 0.267 0.1 0.466 0.133 0.6 0.1l1.95-0.1z" fill="url(#ar)"/>
				<linearGradient id="as" x1="2.9619" x2="28.737" y1="-1.1748" y2="-1.1748" gradientUnits="userSpaceOnUse">
					<stop stop-opacity=".2" offset=".8157"/>
					<stop stop-opacity=".2" offset=".9804"/>
				</linearGradient>
				<polygon points="12.55 -0.85 13.25 -1.5 12.7 -1.4 12.5 -0.9" fill="url(#as)"/>
				<linearGradient id="at" x1="-2.6006" x2="15.099" y1="-1.1748" y2="-1.1748" gradientUnits="userSpaceOnUse">
					<stop stop-color="#fff" stop-opacity=".2" offset=".0627"/>
					<stop stop-color="#fff" stop-opacity=".2" offset=".1647"/>
				</linearGradient>
				<polygon points="12.55 -0.85 13.25 -1.5 12.7 -1.4 12.5 -0.9" fill="url(#at)"/>
		</g>
</symbol>
<use transform="matrix(1 0 0 -1 13.65 24.95)" y="-26.112" width="22.7" height="26.087" xlink:href="#bf"/>
</svg>
