<?xml version="1.0" encoding="UTF-8"?>
<svg enable-background="new 0 0 40.833 52.176" viewBox="0 0 40.833 52.176" xmlns="http://www.w3.org/2000/svg">
 <defs>
  <radialGradient id="c" cx="25.166" cy="25.933" r="23.359" gradientTransform="matrix(1 0 0 -1 .0376 51.022)" gradientUnits="userSpaceOnUse">
   <stop stop-color="#fff200" offset="0"/>
   <stop stop-color="#006e3a" offset="1"/>
  </radialGradient>
  <radialGradient id="b" cx="2.6328" cy="38.792" r="4.2551" gradientTransform="matrix(.9995 -.0318 -.0318 -.9995 13.709 43.142)" gradientUnits="userSpaceOnUse">
   <stop stop-color="#fff200" offset="0"/>
   <stop stop-color="#006e3a" offset="1"/>
  </radialGradient>
  <radialGradient id="a" cx="15.944" cy="38.396" r="4.2555" gradientTransform="matrix(.9995 -.0318 -.0318 -.9995 13.709 43.142)" gradientUnits="userSpaceOnUse">
   <stop stop-color="#fff200" offset="0"/>
   <stop stop-color="#006e3a" offset="1"/>
  </radialGradient>
  <radialGradient id="f" cx="18.558" cy="7.1948" r="10.873" gradientTransform="matrix(1 0 0 -1 .0376 51.022)" gradientUnits="userSpaceOnUse">
   <stop stop-color="#1e3319" offset="0"/>
   <stop stop-color="#006e3a" offset="1"/>
  </radialGradient>
  <radialGradient id="e" cx="204.54" cy="321.06" r="15.65" gradientTransform="matrix(.7944 .6074 .9008 -1.1782 -430.78 279)" gradientUnits="userSpaceOnUse">
   <stop stop-color="#787878" offset="0"/>
   <stop offset="1"/>
  </radialGradient>
  <radialGradient id="d" cx="214.13" cy="326.01" r="15.73" gradientTransform="matrix(-.7944 .6074 -.9008 -1.1782 484.69 279)" gradientUnits="userSpaceOnUse">
   <stop stop-color="#787878" offset="0"/>
   <stop offset="1"/>
  </radialGradient>
 </defs>
 <path d="m38.745 49.074a18.429 2.184 0 1 0 -36.858 0 18.429 2.184 0 1 0 36.858 0" fill="#bcbec0" opacity=".75"/>
 <path d="m26.2,13.206c7.242,2.291 12.492,9.066 12.492,17.067 0,9.884-8.013,17.896-17.896,17.896s-17.896-8.012-17.896-17.896c0-8.284 5.627-15.253 13.268-17.292l.102-.391c-.454-.588-1.62-3.587-1.812-3.582-2.073.066-3.807-1.561-3.873-3.634s1.561-3.806 3.633-3.873 3.808,1.561 3.873,3.635c.04,1.251-.539,2.38-1.458,3.092-.134.103 1.004,3.276 1.128,3.987l.653.317c.78-.104 1.575-.157 2.382-.157 1.093,0 2.164.098 3.203.286l.686-.286c.072-.708.98-3.961.841-4.058-.949-.653-1.586-1.734-1.626-2.974-.065-2.073 1.562-3.807 3.634-3.873s3.807,1.561 3.873,3.633-1.561,3.807-3.634,3.873c-.198.006-1.317,3.099-1.757,3.771l.184.459z" fill="#8cc63f" stroke="#006031" stroke-width=".4831"/>
 <path d="m38.054 30.352a17.338 17.338 0 1 0 -34.676 0 17.338 17.338 0 1 0 34.676 0" fill="url(#c)" stroke="#28903a" stroke-width=".4831"/>
 <path d="m17.479 5.272a3.159 3.159 0 1 0 -6.318 0 3.159 3.159 0 1 0 6.318 0" fill="url(#b)" opacity=".5"/>
 <path d="m30.796 5.242a3.159 3.159 0 1 0 -6.318 0 3.159 3.159 0 1 0 6.318 0" fill="url(#a)" opacity=".41"/>
 <path d="m18.36,42.798c-1.082.317-2.141.725-3.142,1.133 1.799-1.482 4.423-2.996 6.834-2.858 1.971.112 3.424,1.792 5.213,2.506-.786-.313-1.733-.321-2.57-.692-.934-.414-1.646-.704-2.677-.695-1.217.01-2.452.253-3.658.606z" fill="url(#f)" stroke="#1e3319" stroke-width=".4203"/>
 <path d="m28.891,34.89c-2.438.622-8.162-4.216-4.253-4.892 1.279-.222 2.226-.707 3.209-1.592 .759-.682 1.756-1.832 2.76-2.137 2.913-.885 2.145,3.556 1.616,4.919-.661,1.706-1.355,3.198-3.332,3.702z" fill="url(#e)"/>
 <path d="m9.75,31.126c-.528-1.363-1.297-5.804 1.616-4.919 1.004.305 2.001,1.455 2.76,2.137 .983.885 1.93,1.37 3.209,1.592 3.909.676-1.814,5.514-4.253,4.892-1.976-.504-2.67-1.996-3.332-3.702z" fill="url(#d)"/>
 <path d="m10.778,27.063c-1.034.662.535,1.615.378,1.838 .591-.839 1.75-.03 2.459.274-.476-.521-2.346-2.211-2.962-1.862" fill="#fff"/>
 <path d="m30.292,27.338c-.599.143-1.294.718-1.362,1.358 .416-.095 1.931-.85 1.112-1.233" fill="#fff"/>
 <path d="m26.707,26.841c-1.221,1.588-3.589,4.484-4.563,3.836-.732-.489-1.554-2.99-1.48-3.812-.061.684.094,3.572-.56,3.976-.036.021-.172.029-.445-.101-.233-.111-.671-.55-.991-.87-1.232-1.233-2.573-2.396-3.834-3.622 .844,1.346 1.526,2.698 2.628,3.85l.499.479c.433.433.879.88 1.269,1.065 .568.271 1.047.281 1.424.033 .221-.146.325-.4.427-.655 .151.188.318.36.511.488 .555.369 1.206.391 1.834.063 1.762-.921 3.144-3.876 3.94-5.598l-.659.868z" fill="#005412"/>
</svg>
