<?xml version="1.0" standalone="no"?>
<!DOCTYPE svg PUBLIC "-//W3C//DTD SVG 1.1//EN" "http://www.w3.org/Graphics/SVG/1.1/DTD/svg11.dtd">
<!--Generator: Xara Designer (www.xara.com), SVG filter version: 4.0.0.1-->
<svg stroke-width="0.501" stroke-linejoin="bevel" fill-rule="evenodd" xmlns:xlink="http://www.w3.org/1999/xlink" xmlns="http://www.w3.org/2000/svg" version="1.1" overflow="visible" width="600pt" height="600pt" viewBox="0 0 600 600">
 <defs>
  <marker id="DefaultArrow2" markerUnits="strokeWidth" viewBox="0 0 1 1" markerWidth="1" markerHeight="1" overflow="visible" orient="auto">
   <!-- REF_ARROW_STRAIGHT (-2) -->
   <g transform="scale(0.0092592592)">
    <!-- 1/108 -->
    <path d="M -9 54 L -9 -54 L 117 0 z"/>
   </g>
  </marker>
  <marker id="DefaultArrow3" markerUnits="strokeWidth" viewBox="0 0 1 1" markerWidth="1" markerHeight="1" overflow="visible" orient="auto">
   <!-- REF_ARROW_ANGLED -->
   <g transform="scale(0.0092592592)">
    <path d="M -27 54 L -9 0 L -27 -54 L 135 0 z"/>
   </g>
  </marker>
  <marker id="DefaultArrow4" markerUnits="strokeWidth" viewBox="0 0 1 1" markerWidth="1" markerHeight="1" overflow="visible" orient="auto">
   <!-- REF_ARROW_ROUNDED -->
   <g transform="scale(0.0092592592)">
    <path d="M -9,0 L -9,-45 C -9,-51.708 2.808,-56.580 9,-54 L 117,-9 C 120.916,-7.369 126.000,-4.242 126,0 C 126,4.242 120.916,7.369 117,9 L 9,54 C 2.808,56.580 -9,51.708 -9,45 z"/>
   </g>
  </marker>
  <marker id="DefaultArrow5" markerUnits="strokeWidth" viewBox="0 0 1 1" markerWidth="1" markerHeight="1" overflow="visible" orient="auto">
   <!-- REF_ARROW_SPOT -->
   <g transform="scale(0.0092592592)">
    <path d="M -54, 0 C -54,29.807 -29.807,54 0,54 C 29.807,54 54,29.807 54,0 C 54,-29.807 29.807,-54 0,-54 C -29.807,-54 -54,-29.807 -54,0 z"/>
   </g>
  </marker>
  <marker id="DefaultArrow6" markerUnits="strokeWidth" viewBox="0 0 1 1" markerWidth="1" markerHeight="1" overflow="visible" orient="auto">
   <!-- REF_ARROW_DIAMOND -->
   <g transform="scale(0.0092592592)">
    <path d="M -63,0 L 0,63 L 63,0 L 0,-63 z"/>
   </g>
  </marker>
  <marker id="DefaultArrow7" markerUnits="strokeWidth" viewBox="0 0 1 1" markerWidth="1" markerHeight="1" overflow="visible" orient="auto">
   <!-- REF_ARROW_FEATHER -->
   <g transform="scale(0.0092592592)">
    <path d="M 18,-54 L 108,-54 L 63,0 L 108,54 L 18, 54 L -36,0 z"/>
   </g>
  </marker>
  <marker id="DefaultArrow8" markerUnits="strokeWidth" viewBox="0 0 1 1" markerWidth="1" markerHeight="1" overflow="visible" orient="auto">
   <!-- REF_ARROW_FEATHER2 -->
   <g transform="scale(0.0092592592)">
    <path d="M -36,0 L 18,-54 L 54,-54 L 18,-18 L 27,-18 L 63,-54 L 99,-54 L 63,-18 L 72,-18 L 108,-54 L 144,-54 L 90,0 L 144,54 L 108,54 L 72,18 L 63,18 L 99,54 L 63,54 L 27,18 L 18,18 L 54,54 L 18,54 z"/>
   </g>
  </marker>
  <marker id="DefaultArrow9" markerUnits="strokeWidth" viewBox="0 0 1 1" markerWidth="1" markerHeight="1" overflow="visible" orient="auto">
   <!-- REF_ARROW_HOLLOWDIAMOND -->
   <g transform="scale(0.0092592592)">
    <path d="M 0,45 L -45,0 L 0, -45 L 45, 0 z M 0, 63 L-63, 0 L 0, -63 L 63, 0 z"/>
   </g>
  </marker>
  <filter id="StainedFilter">
   <feBlend mode="multiply" in2="BackgroundImage" in="SourceGraphic" result="blend"/>
   <feComposite in="blend" in2="SourceAlpha" operator="in" result="comp"/>
  </filter>
  <filter id="BleachFilter">
   <feBlend mode="screen" in2="BackgroundImage" in="SourceGraphic" result="blend"/>
   <feComposite in="blend" in2="SourceAlpha" operator="in" result="comp"/>
  </filter>
  <filter id="InvertTransparencyBitmapFilter">
   <feComponentTransfer>
    <feFuncR type="gamma" amplitude="1.055" exponent=".416666666" offset="-0.055"/>
    <feFuncG type="gamma" amplitude="1.055" exponent=".416666666" offset="-0.055"/>
    <feFuncB type="gamma" amplitude="1.055" exponent=".416666666" offset="-0.055"/>
   </feComponentTransfer>
   <feComponentTransfer>
    <feFuncR type="linear" slope="-1" intercept="1"/>
    <feFuncG type="linear" slope="-1" intercept="1"/>
    <feFuncB type="linear" slope="-1" intercept="1"/>
    <feFuncA type="linear" slope="1" intercept="0"/>
   </feComponentTransfer>
   <feComponentTransfer>
    <feFuncR type="gamma" amplitude="1" exponent="2.4" offset="0"/>
    <feFuncG type="gamma" amplitude="1" exponent="2.4" offset="0"/>
    <feFuncB type="gamma" amplitude="1" exponent="2.4" offset="0"/>
   </feComponentTransfer>
  </filter>
  <radialGradient id="RadialGradient" gradientUnits="userSpaceOnUse" cx="0" cy="0" r="21.3" gradientTransform="translate(289.31 346.348)">
   <stop offset="0" stop-color="#ff0000"/>
   <stop offset="0.164700001478195" stop-color="#ff0000"/>
   <stop offset="1" stop-color="#ff0000"/>
  </radialGradient>
  <radialGradient id="RadialGradient_1" gradientUnits="userSpaceOnUse" cx="0" cy="0" r="15" gradientTransform="translate(249.712 331.348)">
   <stop offset="0" stop-color="#ff0000"/>
   <stop offset="0.164700001478195" stop-color="#ff0000"/>
   <stop offset="1" stop-color="#ff0000"/>
  </radialGradient>
  <radialGradient id="RadialGradient_2" gradientUnits="userSpaceOnUse" cx="0" cy="0" r="11.1" gradientTransform="translate(306.109 314.55)">
   <stop offset="0" stop-color="#ff0000"/>
   <stop offset="0.164700001478195" stop-color="#ff0000"/>
   <stop offset="1" stop-color="#ff0000"/>
  </radialGradient>
  <radialGradient id="RadialGradient_3" gradientUnits="userSpaceOnUse" cx="0" cy="0" r="22.8" gradientTransform="translate(356.508 315.15)">
   <stop offset="0" stop-color="#ff0000"/>
   <stop offset="0.164700001478195" stop-color="#ff0000"/>
   <stop offset="1" stop-color="#ff0000"/>
  </radialGradient>
  <linearGradient id="LinearGradient" gradientUnits="userSpaceOnUse" x1="0" y1="0" x2="274.199" y2="0" gradientTransform="translate(211.609 331.052)">
   <stop offset="0" stop-color="#ff0000"/>
   <stop offset="0.815699994564056" stop-color="#ff0000"/>
   <stop offset="0.980400025844574" stop-color="#ff0000"/>
   <stop offset="1" stop-color="#ff0000"/>
  </linearGradient>
  <linearGradient id="LinearGradient_1" gradientUnits="userSpaceOnUse" x1="0" y1="0" x2="274.199" y2="0" gradientTransform="translate(211.609 338.154)">
   <stop offset="0" stop-color="#ff0000"/>
   <stop offset="0.815699994564056" stop-color="#ff0000"/>
   <stop offset="0.980400025844574" stop-color="#ff0000"/>
   <stop offset="1" stop-color="#ff0000"/>
  </linearGradient>
  <linearGradient id="LinearGradient_2" gradientUnits="userSpaceOnUse" x1="0" y1="0" x2="320.703" y2="0" gradientTransform="translate(211.761 316.65)">
   <stop offset="0" stop-color="#ff0000"/>
   <stop offset="0.815699994564056" stop-color="#ff0000"/>
   <stop offset="0.980400025844574" stop-color="#ff0000"/>
   <stop offset="1" stop-color="#ff0000"/>
  </linearGradient>
  <linearGradient id="LinearGradient_3" gradientUnits="userSpaceOnUse" x1="0" y1="0" x2="274.199" y2="0" gradientTransform="translate(211.609 319.95)">
   <stop offset="0" stop-color="#ff0000"/>
   <stop offset="0.815699994564056" stop-color="#ff0000"/>
   <stop offset="0.980400025844574" stop-color="#ff0000"/>
   <stop offset="1" stop-color="#ff0000"/>
  </linearGradient>
  <linearGradient id="LinearGradient_4" gradientUnits="userSpaceOnUse" x1="0" y1="0" x2="320.703" y2="0" gradientTransform="translate(211.761 319.95)">
   <stop offset="0" stop-color="#ff0000"/>
   <stop offset="0.815699994564056" stop-color="#ff0000"/>
   <stop offset="0.980400025844574" stop-color="#ff0000"/>
   <stop offset="1" stop-color="#ff0000"/>
  </linearGradient>
  <linearGradient id="LinearGradient_5" gradientUnits="userSpaceOnUse" x1="0" y1="0" x2="274.199" y2="0" gradientTransform="translate(211.609 278.082)">
   <stop offset="0" stop-color="#ff0000"/>
   <stop offset="0.815699994564056" stop-color="#ff0000"/>
   <stop offset="0.980400025844574" stop-color="#ff0000"/>
   <stop offset="1" stop-color="#ff0000"/>
  </linearGradient>
  <linearGradient id="LinearGradient_6" gradientUnits="userSpaceOnUse" x1="0" y1="0" x2="320.703" y2="0" gradientTransform="translate(211.761 278.082)">
   <stop offset="0" stop-color="#ff0000"/>
   <stop offset="0.815699994564056" stop-color="#ff0000"/>
   <stop offset="0.980400025844574" stop-color="#ff0000"/>
   <stop offset="1" stop-color="#ff0000"/>
  </linearGradient>
  <linearGradient id="LinearGradient_7" gradientUnits="userSpaceOnUse" x1="0" y1="0" x2="241.494" y2="0" gradientTransform="translate(277.158 278.082)">
   <stop offset="0" stop-color="#ff0000"/>
   <stop offset="0.815699994564056" stop-color="#ff0000"/>
   <stop offset="0.980400025844574" stop-color="#ff0000"/>
   <stop offset="1" stop-color="#ff0000"/>
  </linearGradient>
  <linearGradient id="LinearGradient_8" gradientUnits="userSpaceOnUse" x1="0" y1="0" x2="274.199" y2="0" gradientTransform="translate(211.609 345.448)">
   <stop offset="0" stop-color="#ff0000"/>
   <stop offset="0.815699994564056" stop-color="#ff0000"/>
   <stop offset="0.980400025844574" stop-color="#ff0000"/>
   <stop offset="1" stop-color="#ff0000"/>
  </linearGradient>
  <linearGradient id="LinearGradient_9" gradientUnits="userSpaceOnUse" x1="0" y1="0" x2="320.703" y2="0" gradientTransform="translate(211.761 345.448)">
   <stop offset="0" stop-color="#ff0000"/>
   <stop offset="0.815699994564056" stop-color="#ff0000"/>
   <stop offset="0.980400025844574" stop-color="#ff0000"/>
   <stop offset="1" stop-color="#ff0000"/>
  </linearGradient>
  <linearGradient id="LinearGradient_10" gradientUnits="userSpaceOnUse" x1="0" y1="0" x2="241.494" y2="0" gradientTransform="translate(277.158 345.448)">
   <stop offset="0" stop-color="#ff0000"/>
   <stop offset="0.815699994564056" stop-color="#ff0000"/>
   <stop offset="0.980400025844574" stop-color="#ff0000"/>
   <stop offset="1" stop-color="#ff0000"/>
  </linearGradient>
  <linearGradient id="LinearGradient_11" gradientUnits="userSpaceOnUse" x1="0" y1="0" x2="140.1" y2="0" gradientTransform="translate(184.592 455.42)">
   <stop offset="0" stop-color="#ffffff"/>
   <stop offset="6.27000033855438E-02" stop-color="#ffffff"/>
   <stop offset="0.164700001478195" stop-color="#ffffff"/>
   <stop offset="1" stop-color="#ffffff"/>
  </linearGradient>
  <linearGradient id="LinearGradient_12" gradientUnits="userSpaceOnUse" x1="0" y1="0" x2="274.197" y2="0" gradientTransform="translate(211.011 343.052)">
   <stop offset="0" stop-color="#ff0000"/>
   <stop offset="0.815699994564056" stop-color="#ff0000"/>
   <stop offset="0.980400025844574" stop-color="#ff0000"/>
   <stop offset="1" stop-color="#ff0000"/>
  </linearGradient>
  <linearGradient id="LinearGradient_13" gradientUnits="userSpaceOnUse" x1="0" y1="0" x2="140.1" y2="0" gradientTransform="translate(185.06 361.652)">
   <stop offset="0" stop-color="#ffffff"/>
   <stop offset="6.27000033855438E-02" stop-color="#ffffff"/>
   <stop offset="0.164700001478195" stop-color="#ffffff"/>
   <stop offset="1" stop-color="#ffffff"/>
  </linearGradient>
 </defs>
 <g id="Document" fill="none" stroke="black" font-family="Times New Roman" font-size="16" transform="scale(1 -1)">
  <g id="Spread" transform="translate(0 -600)">
   <g id="SVG Document">
    <g id="ClipView" stroke="none">
     <path d="M 215.1,263.55 L 454.32,263.55 L 454.32,441.342 L 215.1,441.342 L 215.1,263.55"/>
     <clipPath id="ClipPath">
      <path d="M 215.1,263.55 L 215.1,441.342 L 454.32,441.342 L 454.32,263.55 L 215.1,263.55 Z"/>
     </clipPath>
     <g clip-path="url(#ClipPath)">
      <path d="M 354.108,440.55 L 387.108,425.55 C 400.308,421.95 412.704,416.346 424.308,408.75 C 427.104,406.35 431.712,402.354 438.108,396.75 C 443.712,391.95 448.908,389.358 453.708,388.95 C 454.908,365.754 452.1,350.754 445.308,343.95 C 443.304,341.55 440.508,339.15 436.907,336.75 C 434.111,334.35 432.312,331.35 431.507,327.75 C 431.099,324.954 430.703,321.75 430.307,318.15 C 429.911,315.354 428.099,312.75 424.907,310.35 C 410.111,298.35 393.311,289.95 374.507,285.15 C 362.507,281.946 351.707,277.746 342.107,272.55 C 328.907,266.55 315.515,263.55 301.907,263.55 C 298.307,263.55 290.903,265.146 279.707,268.35 C 266.099,269.55 256.703,271.146 251.507,273.15 C 247.511,275.154 243.707,280.95 240.107,290.55 L 227.507,326.55 C 226.703,329.358 224.111,334.146 219.707,340.95 C 215.711,346.95 214.307,353.754 215.507,361.35 C 216.707,368.55 219.911,374.754 225.107,379.95 C 221.507,384.75 220.307,395.754 221.507,412.95 C 221.903,421.746 229.511,426.954 244.307,428.55 C 259.103,430.146 268.103,431.754 271.307,433.35 C 280.511,437.346 288.107,439.746 294.107,440.55 C 302.111,441.354 312.107,441.546 324.107,441.15 C 330.911,441.15 340.907,440.946 354.107,440.55 Z" fill="#81675c" stroke-width="12" stroke-linejoin="miter" marker-start="none" marker-end="none" stroke-miterlimit="79.8403193612775"/>
      <path d="M 403.908,314.55 C 395.508,309.75 380.904,306.546 360.108,304.95 L 352.908,305.55 C 357.708,306.75 367.116,311.946 381.108,321.15 C 392.316,328.746 402.312,332.154 411.108,331.35 L 427.908,328.35 L 403.908,314.55 Z" fill="#8c8d8a" stroke-width="12" stroke-linejoin="miter" marker-start="none" marker-end="none" stroke-miterlimit="79.8403193612775"/>
      <path d="M 346.908,327.75 C 335.316,323.754 320.508,321.75 302.508,321.75 C 296.1,321.75 280.104,322.554 254.508,324.15 L 273.708,324.75 C 272.904,329.55 266.316,332.154 253.908,332.55 C 239.904,331.746 230.712,331.35 226.308,331.35 L 219.708,340.95 C 217.704,343.746 216.312,347.154 215.508,351.15 L 222.708,348.15 C 229.104,346.95 237.708,346.554 248.508,346.95 C 254.1,346.95 262.512,347.154 273.708,347.55 C 281.304,347.55 292.908,347.142 308.508,346.35 C 322.512,346.35 334.104,346.746 343.308,347.55 C 348.912,348.342 355.308,350.946 362.508,355.35 C 370.512,360.546 376.704,363.75 381.108,364.95 C 386.712,366.15 396.516,365.946 410.508,364.35 C 418.512,364.35 423.708,364.554 426.108,364.95 C 430.908,365.754 435.108,367.95 438.708,371.55 C 445.104,378.75 450.108,384.342 453.708,388.35 C 454.5,383.55 454.5,377.754 453.708,370.95 L 453.108,370.35 C 445.104,361.95 440.112,356.946 438.108,355.35 C 432.912,350.946 427.104,348.354 420.708,347.55 C 411.504,348.342 404.904,348.546 400.908,348.15 C 393.708,346.554 384.516,343.35 373.308,338.55 C 357.708,332.154 348.912,328.554 346.908,327.75 Z" fill="#8c8d8a" stroke-width="12" stroke-linejoin="miter" marker-start="none" marker-end="none" stroke-miterlimit="79.8403193612775"/>
      <path d="M 260.508,304.35 C 254.904,305.142 249.708,306.942 244.908,309.75 C 239.316,313.35 234.708,316.35 231.108,318.75 L 229.308,319.95 L 228.108,324.75 L 252.708,324.15 C 261.912,322.146 275.712,317.754 294.108,310.95 C 311.712,306.546 324.708,304.158 333.108,303.75 L 333.708,303.15 L 296.508,302.55 C 293.712,304.554 288.108,305.346 279.708,304.95 C 268.116,304.554 261.708,304.35 260.508,304.35 Z" fill="#8c8d8a" stroke-width="12" stroke-linejoin="miter" marker-start="none" marker-end="none" stroke-miterlimit="79.8403193612775"/>
      <path d="M 324.108,391.95 C 311.712,387.546 300.108,385.158 289.308,384.75 C 292.908,385.554 302.904,388.554 319.308,393.75 C 331.308,397.746 341.1,400.158 348.708,400.95 C 336.708,396.546 328.512,393.546 324.108,391.95 Z" fill="#aa907d" stroke-width="12" stroke-linejoin="miter" marker-start="none" marker-end="none" stroke-miterlimit="79.8403193612775"/>
      <path d="M 226.908,395.55 L 234.108,395.55 C 234.912,395.55 239.316,392.946 247.308,387.75 C 238.908,389.754 232.116,392.358 226.908,395.55 Z" fill="#aa907d" stroke-width="12" stroke-linejoin="miter" marker-start="none" marker-end="none" stroke-miterlimit="79.8403193612775"/>
      <path d="M 373.908,407.55 L 360.708,407.55 C 359.904,405.15 360.108,403.146 361.308,401.55 C 364.908,399.942 368.904,399.942 373.308,401.55 C 374.508,403.146 374.712,405.15 373.908,407.55 Z M 340.308,417.75 L 317.508,424.35 C 311.508,425.946 307.704,425.154 306.108,421.95 C 304.116,418.746 305.316,415.35 309.708,411.75 C 314.904,407.358 325.104,406.158 340.308,408.15 C 341.112,412.554 341.112,415.746 340.308,417.75 Z M 387.108,415.35 C 399.912,410.142 407.904,410.55 411.108,416.55 L 424.308,408.75 L 435.108,399.15 L 423.708,390.75 C 426.108,386.358 429.108,385.158 432.708,387.15 C 435.912,389.154 437.508,392.358 437.508,396.75 C 440.712,394.35 444.504,391.95 448.908,389.55 C 444.108,383.55 433.512,378.342 417.108,373.95 C 401.112,374.754 389.904,377.55 383.508,382.35 L 397.308,394.35 L 393.708,393.15 C 400.5,397.146 405.708,401.754 409.308,406.95 C 401.711,408.546 392.904,405.942 382.908,399.15 C 372.912,392.358 364.512,389.754 357.708,391.35 C 356.904,395.754 356.508,398.754 356.508,400.35 L 350.508,400.95 C 344.508,400.95 334.512,400.35 320.508,399.15 C 307.704,397.95 297.708,397.554 290.508,397.95 C 280.115,397.95 266.904,400.146 250.908,404.55 C 242.904,406.146 237.312,408.354 234.108,411.15 L 231.108,413.55 C 235.908,415.95 243.311,418.746 253.308,421.95 C 256.908,423.546 262.308,426.954 269.508,432.15 C 276.311,434.55 286.907,435.942 301.308,436.35 C 315.312,436.746 326.508,435.942 334.908,433.95 C 346.116,431.55 363.516,425.358 387.107,415.35 Z" fill="#aa907d" stroke-width="12" stroke-linejoin="miter" marker-start="none" marker-end="none" stroke-miterlimit="79.8403193612775"/>
      <path d="M 256.308,370.95 C 261.108,370.158 270.708,369.75 285.108,369.75 C 297.912,368.958 306.312,366.354 310.308,361.95 C 282.708,356.358 251.316,356.946 216.108,363.75 C 218.112,369.75 221.112,375.15 225.108,379.95 L 223.308,383.55 C 234.516,376.35 245.508,372.15 256.308,370.95 Z" fill="#56443d" stroke-width="12" stroke-linejoin="miter" marker-start="none" marker-end="none" stroke-miterlimit="79.8403193612775"/>
      <path d="M 333.708,303.15 L 333.108,303.75 L 350.508,304.95 L 352.908,305.55 L 367.308,304.35 C 374.1,304.746 384.708,306.942 399.107,310.95 C 413.111,314.946 423.707,320.55 430.907,327.75 L 431.507,327.75 C 431.099,324.954 430.703,321.75 430.307,318.15 C 429.911,315.354 428.099,312.75 424.907,310.35 C 415.307,303.15 403.307,296.346 388.907,289.95 C 361.703,288.354 343.307,292.746 333.707,303.15 Z" fill="#56443d" stroke-width="12" stroke-linejoin="miter" marker-start="none" marker-end="none" stroke-miterlimit="79.8403193612775"/>
      <path d="M 260.508,304.35 C 261.708,304.35 268.104,304.554 279.708,304.95 C 288.108,305.358 293.712,304.554 296.508,302.55 L 297.108,301.95 C 289.512,301.554 283.908,301.158 280.308,300.75 C 273.912,299.958 269.712,296.958 267.708,291.75 C 270.504,291.354 276.504,290.754 285.708,289.95 C 293.304,289.554 299.304,288.75 303.708,287.55 C 315.3,284.754 326.508,281.142 337.308,276.75 L 344.508,273.75 L 342.108,272.55 C 328.908,266.55 315.516,263.55 301.908,263.55 C 298.308,263.55 290.904,265.146 279.708,268.35 C 266.1,269.55 256.704,271.146 251.508,273.15 C 247.512,275.154 243.708,280.95 240.108,290.55 L 232.308,309.75 L 229.308,319.95 L 231.108,318.75 C 234.708,316.35 239.316,313.35 244.908,309.75 C 249.708,306.942 254.904,305.154 260.508,304.35 Z" fill="#56443d" stroke-width="12" stroke-linejoin="miter" marker-start="none" marker-end="none" stroke-miterlimit="79.8403193612775"/>
      <path d="M 420.708,347.55 C 427.104,348.342 432.912,350.946 438.108,355.35 C 440.112,356.946 445.104,361.95 453.108,370.35 L 453.708,370.95 C 453.708,364.158 452.508,357.75 450.108,351.75 L 447.108,351.15 C 443.904,351.546 440.112,351.15 435.708,349.95 C 430.104,348.354 426.504,347.55 424.908,347.55 L 420.708,347.55 Z" fill="#56443d" stroke-width="12" stroke-linejoin="miter" marker-start="none" marker-end="none" stroke-miterlimit="79.8403193612775"/>
      <path d="M 333.108,303.75 C 324.708,304.158 311.712,306.546 294.108,310.95 C 275.712,317.754 261.912,322.158 252.708,324.15 L 254.508,324.15 C 280.104,322.554 296.1,321.75 302.508,321.75 C 320.508,321.75 335.304,323.754 346.908,327.75 C 348.912,328.554 357.708,332.154 373.308,338.55 C 384.516,343.35 393.708,346.554 400.908,348.15 C 404.904,348.546 411.516,348.354 420.708,347.55 L 424.908,347.55 C 426.516,347.55 430.116,348.342 435.708,349.95 C 440.1,351.15 443.904,351.546 447.108,351.15 L 450.108,351.75 C 448.512,347.754 446.904,345.15 445.308,343.95 C 443.304,341.55 440.508,339.15 436.908,336.75 C 434.112,334.35 432.312,331.35 431.508,327.75 L 430.908,327.75 L 411.108,331.35 C 402.312,332.142 392.316,328.746 381.108,321.15 C 367.104,311.946 357.708,306.75 352.908,305.55 L 350.508,304.95 L 333.108,303.75 Z" fill="#464d53" stroke-width="12" stroke-linejoin="miter" marker-start="none" marker-end="none" stroke-miterlimit="79.8403193612775"/>
      <path d="M 227.508,411.15 L 231.108,413.55 L 234.108,411.15 C 237.312,408.354 242.904,406.146 250.908,404.55 C 266.904,400.146 280.116,397.95 290.508,397.95 C 297.708,397.554 307.704,397.95 320.508,399.15 C 333.192,400.242 342.588,400.842 348.708,400.95 C 341.112,400.146 331.308,397.746 319.308,393.75 C 302.904,388.554 292.908,385.554 289.308,384.75 C 275.316,381.15 263.508,380.946 253.908,384.15 L 247.308,387.75 C 239.316,392.946 234.912,395.55 234.108,395.55 L 226.908,395.55 L 221.508,393.75 C 220.704,401.358 220.704,407.754 221.508,412.95 L 222.108,417.75 L 227.508,411.15 Z" fill="#cbbcb0" stroke-width="12" stroke-linejoin="miter" marker-start="none" marker-end="none" stroke-miterlimit="79.8403193612775"/>
      <path d="M 377.508,388.95 L 397.308,394.35 L 383.508,382.35 C 380.712,383.946 378.708,386.154 377.508,388.95 Z" fill="#cbbcb0" stroke-width="12" stroke-linejoin="miter" marker-start="none" marker-end="none" stroke-miterlimit="79.8403193612775"/>
      <path d="M 376.308,388.35 L 374.508,376.35 C 369.708,373.95 365.1,373.554 360.708,375.15 C 361.5,377.154 363.504,379.35 366.708,381.75 C 371.1,385.35 373.5,387.354 373.908,387.75 L 376.308,388.35 Z" fill="#cbbcb0" stroke-width="12" stroke-linejoin="miter" marker-start="none" marker-end="none" stroke-miterlimit="79.8403193612775"/>
      <path d="M 417.108,373.95 L 423.108,373.35 C 419.112,370.146 411.312,368.754 399.708,369.15 C 386.904,370.35 378.3,370.95 373.908,370.95 L 376.908,391.35 C 376.932,390.51 377.136,389.706 377.508,388.95 C 378.708,386.154 380.712,383.946 383.508,382.35 C 389.904,377.55 401.112,374.754 417.108,373.95 Z" fill="#cbbcb0" stroke-width="12" stroke-linejoin="miter" marker-start="none" marker-end="none" stroke-miterlimit="79.8403193612775"/>
      <path d="M 354.108,440.55 L 387.108,425.55 C 396.312,422.754 404.316,419.754 411.108,416.55 C 407.904,410.55 399.912,410.142 387.108,415.35 C 363.516,425.358 346.116,431.55 334.908,433.95 C 326.508,435.942 315.312,436.746 301.308,436.35 C 286.908,435.942 276.312,434.55 269.508,432.15 C 262.308,426.942 256.908,423.546 253.308,421.95 C 243.312,418.746 235.908,415.95 231.108,413.55 L 227.508,411.15 L 222.108,417.75 C 224.508,423.354 231.912,426.954 244.308,428.55 C 259.104,430.146 268.104,431.754 271.308,433.35 C 280.512,437.346 288.108,439.746 294.108,440.55 C 302.112,441.354 312.108,441.546 324.108,441.15 C 330.912,441.15 340.908,440.946 354.108,440.55 Z" fill="#cbbcb0" stroke-width="12" stroke-linejoin="miter" marker-start="none" marker-end="none" stroke-miterlimit="79.8403193612775"/>
      <path d="M 317.508,424.35 L 340.308,417.75 C 341.1,415.746 341.1,412.554 340.308,408.15 C 325.116,406.146 314.904,407.358 309.708,411.75 C 305.316,415.35 304.116,418.746 306.108,421.95 C 307.704,425.154 311.508,425.946 317.508,424.35 Z" fill="#81675c" stroke-width="12" stroke-linejoin="miter" marker-start="none" marker-end="none" stroke-miterlimit="79.8403193612775"/>
      <path d="M 360.708,407.55 L 373.908,407.55 C 374.712,405.15 374.508,403.146 373.308,401.55 C 368.904,399.942 364.908,399.942 361.308,401.55 C 360.108,403.146 359.904,405.15 360.708,407.55 Z" fill="#81675c" stroke-width="12" stroke-linejoin="miter" marker-start="none" marker-end="none" stroke-miterlimit="79.8403193612775"/>
      <path d="M 437.508,396.75 C 437.508,392.358 435.912,389.154 432.708,387.15 C 429.108,385.146 426.108,386.358 423.708,390.75 L 435.108,399.15 L 437.508,396.75 Z" fill="#81675c" stroke-width="12" stroke-linejoin="miter" marker-start="none" marker-end="none" stroke-miterlimit="79.8403193612775"/>
      <path d="M 282.108,364.35 L 285.708,372.75 C 290.904,373.95 294.708,370.95 297.108,363.75 C 299.508,356.55 298.512,351.75 294.108,349.35 C 289.308,346.95 285.516,347.946 282.708,352.35 C 279.516,356.754 279.312,360.75 282.108,364.35 Z" stroke-width="12" stroke-linejoin="miter" marker-start="none" marker-end="none" stroke-miterlimit="79.8403193612775" fill="url(#RadialGradient)"/>
      <path d="M 245.508,347.55 L 253.908,347.55 C 255.912,344.358 256.512,341.154 255.708,337.95 C 254.904,333.942 252.708,332.154 249.108,332.55 C 245.904,332.946 244.116,334.746 243.708,337.95 C 243.312,341.154 243.912,344.358 245.508,347.55 Z" stroke-width="12" stroke-linejoin="miter" marker-start="none" marker-end="none" stroke-miterlimit="79.8403193612775" fill="url(#RadialGradient_1)"/>
      <path d="M 307.308,330.75 L 310.308,327.75 C 310.704,323.754 309.912,320.358 307.908,317.55 C 305.904,314.346 303.912,315.15 301.908,319.95 C 301.116,321.954 301.116,324.15 301.908,326.55 C 303.108,329.358 304.908,330.75 307.308,330.75 Z" stroke-width="12" stroke-linejoin="miter" marker-start="none" marker-end="none" stroke-miterlimit="79.8403193612775" fill="url(#RadialGradient_2)"/>
      <path d="M 348.708,330.75 L 365.508,336.15 C 365.508,334.554 365.712,331.35 366.108,326.55 C 366.108,322.554 365.316,319.746 363.708,318.15 C 363.3,317.358 361.104,316.95 357.108,316.95 C 353.112,316.95 350.712,317.358 349.908,318.15 C 347.904,319.746 347.112,321.75 347.508,324.15 C 348.312,326.55 348.708,328.746 348.708,330.75 Z" stroke-width="12" stroke-linejoin="miter" marker-start="none" marker-end="none" stroke-miterlimit="79.8403193612775" fill="url(#RadialGradient_3)"/>
      <path d="M 227.508,330.15 L 228.108,328.95 L 226.908,328.35 C 226.116,331.146 225.312,332.946 224.508,333.75 L 225.108,333.75 L 227.508,330.15 Z" stroke-width="12" stroke-linejoin="miter" marker-start="none" marker-end="none" stroke-miterlimit="79.8403193612775" fill="url(#LinearGradient)"/>
      <path d="M 337.308,352.35 C 337.308,357.546 336.108,361.146 333.708,363.15 C 330.108,365.154 326.712,367.146 323.508,369.15 C 317.508,373.554 315.504,379.146 317.508,385.95 C 325.908,386.754 338.1,387.354 354.108,387.75 C 368.112,388.95 379.512,392.958 388.308,399.75 C 385.512,395.358 380.1,390.546 372.107,385.35 C 371.315,384.942 365.315,381.354 354.107,374.55 C 354.107,371.346 359.711,368.946 370.907,367.35 C 374.507,366.942 380.111,366.15 387.707,364.95 C 394.103,363.75 399.503,363.546 403.907,364.35 C 409.907,365.55 416.711,368.346 424.308,372.75 C 432.312,378.75 438.312,383.154 442.308,385.95 L 448.308,390.15 L 452.508,388.95 L 444.107,384.15 C 441.312,379.746 437.508,376.146 432.707,373.35 L 430.307,371.55 L 407.507,360.15 C 401.099,357.354 393.707,355.746 385.307,355.35 C 375.311,354.942 367.511,354.546 361.907,354.15 C 362.711,348.942 370.511,345.75 385.307,344.55 C 393.311,344.142 402.911,343.95 414.107,343.95 C 414.911,340.35 413.507,336.954 409.907,333.75 C 409.511,333.354 406.307,331.158 400.307,327.15 C 397.511,325.554 384.911,316.746 362.507,300.75 C 361.703,298.35 359.903,296.754 357.107,295.95 C 350.711,295.158 346.307,294.546 343.907,294.15 C 323.903,295.35 309.311,294.75 300.107,292.35 L 322.307,285.75 C 323.507,285.354 325.307,285.354 327.707,285.75 C 329.303,285.75 330.299,284.754 330.707,282.75 C 322.307,277.158 311.099,275.358 297.107,277.35 C 282.311,279.354 273.107,284.754 269.507,293.55 C 270.707,293.946 274.307,294.15 280.307,294.15 C 284.711,293.754 287.903,294.75 289.907,297.15 C 282.707,296.754 277.307,296.946 273.707,297.75 C 271.307,298.554 267.707,300.546 262.907,303.75 C 267.311,301.35 272.507,300.546 278.507,301.35 C 278.099,304.95 278.099,307.554 278.507,309.15 C 278.903,309.546 280.703,311.754 283.907,315.75 C 289.115,321.354 293.111,325.746 295.907,328.95 C 300.707,334.95 303.911,339.954 305.507,343.95 C 305.507,340.35 305.303,335.154 304.907,328.35 C 304.907,322.35 304.115,317.142 302.507,312.75 C 312.503,314.754 319.103,316.554 322.307,318.15 C 327.911,320.946 332.099,325.746 334.907,332.55 C 336.515,336.942 337.307,343.554 337.307,352.35 Z" stroke-width="12" stroke-linejoin="miter" marker-start="none" marker-end="none" stroke-miterlimit="79.8403193612775" fill="url(#LinearGradient_1)"/>
      <path d="M 250.908,311.55 C 240.516,317.142 232.908,322.95 228.108,328.95 C 230.508,330.15 233.712,329.55 237.708,327.15 L 253.908,310.95 L 262.908,303.75 L 250.908,311.55 Z" stroke-width="12" stroke-linejoin="miter" marker-start="none" marker-end="none" stroke-miterlimit="79.8403193612775" fill="url(#LinearGradient_2)"/>
      <path d="M 228.108,328.95 C 232.908,322.95 240.516,317.154 250.908,311.55 L 262.908,303.75 C 267.708,300.546 271.308,298.554 273.708,297.75 C 277.308,296.958 282.708,296.754 289.908,297.15 C 287.904,294.75 284.712,293.754 280.308,294.15 C 274.308,294.15 270.708,293.946 269.508,293.55 C 273.108,284.754 282.3,279.342 297.108,277.35 C 311.112,275.346 322.308,277.146 330.708,282.75 C 330.3,284.754 329.304,285.75 327.708,285.75 C 325.308,285.354 323.508,285.354 322.308,285.75 L 300.108,292.35 C 309.312,294.75 323.904,295.35 343.908,294.15 C 346.308,294.546 350.712,295.146 357.108,295.95 C 359.904,296.754 361.704,298.35 362.508,300.75 C 384.912,316.746 397.512,325.554 400.308,327.15 C 406.308,331.146 409.512,333.354 409.908,333.75 C 413.508,336.954 414.912,340.35 414.108,343.95 C 402.912,343.95 393.312,344.154 385.308,344.55 C 370.512,345.75 362.712,348.942 361.908,354.15 C 367.512,354.546 375.312,354.942 385.308,355.35 C 393.708,355.746 401.1,357.354 407.508,360.15 L 430.308,371.55 L 426.108,369.15 C 432.108,366.75 434.112,360.15 432.108,349.35 C 430.512,343.35 426.708,338.346 420.708,334.35 C 416.304,331.554 412.5,327.546 409.308,322.35 C 407.304,319.554 404.508,314.754 400.908,307.95 C 402.912,305.946 406.704,303.954 412.308,301.95 C 400.704,294.354 388.104,288.75 374.508,285.15 L 369.708,283.35 C 364.908,290.55 359.1,293.55 352.308,292.35 C 349.512,291.942 345.708,290.346 340.908,287.55 C 338.112,285.942 334.308,283.746 329.508,280.95 C 318.708,275.358 307.104,272.55 294.708,272.55 C 285.504,272.55 280.104,271.146 278.508,268.35 C 265.704,269.55 256.704,271.146 251.508,273.15 C 247.512,275.154 243.708,280.95 240.108,290.55 L 226.908,328.35 L 228.108,328.95 Z" stroke-width="12" stroke-linejoin="miter" marker-start="none" marker-end="none" stroke-miterlimit="79.8403193612775" fill="url(#LinearGradient_3)"/>
      <path d="M 228.108,328.95 C 232.908,322.95 240.516,317.154 250.908,311.55 L 262.908,303.75 C 267.708,300.546 271.308,298.554 273.708,297.75 C 277.308,296.958 282.708,296.754 289.908,297.15 C 287.904,294.75 284.712,293.754 280.308,294.15 C 274.308,294.15 270.708,293.946 269.508,293.55 C 273.108,284.754 282.3,279.342 297.108,277.35 C 311.112,275.346 322.308,277.146 330.708,282.75 C 330.3,284.754 329.304,285.75 327.708,285.75 C 325.308,285.354 323.508,285.354 322.308,285.75 L 300.108,292.35 C 309.312,294.75 323.904,295.35 343.908,294.15 C 346.308,294.546 350.712,295.146 357.108,295.95 C 359.904,296.754 361.704,298.35 362.508,300.75 C 384.912,316.746 397.512,325.554 400.308,327.15 C 406.308,331.146 409.512,333.354 409.908,333.75 C 413.508,336.954 414.912,340.35 414.108,343.95 C 402.912,343.95 393.312,344.154 385.308,344.55 C 370.512,345.75 362.712,348.942 361.908,354.15 C 367.512,354.546 375.312,354.942 385.308,355.35 C 393.708,355.746 401.1,357.354 407.508,360.15 L 430.308,371.55 L 426.108,369.15 C 432.108,366.75 434.112,360.15 432.108,349.35 C 430.512,343.35 426.708,338.346 420.708,334.35 C 416.304,331.554 412.5,327.546 409.308,322.35 C 407.304,319.554 404.508,314.754 400.908,307.95 C 402.912,305.946 406.704,303.954 412.308,301.95 C 400.704,294.354 388.104,288.75 374.508,285.15 L 369.708,283.35 C 364.908,290.55 359.1,293.55 352.308,292.35 C 349.512,291.942 345.708,290.346 340.908,287.55 C 338.112,285.942 334.308,283.746 329.508,280.95 C 318.708,275.358 307.104,272.55 294.708,272.55 C 285.504,272.55 280.104,271.146 278.508,268.35 C 265.704,269.55 256.704,271.146 251.508,273.15 C 247.512,275.154 243.708,280.95 240.108,290.55 L 226.908,328.35 L 228.108,328.95 Z" stroke-width="12" stroke-linejoin="miter" marker-start="none" marker-end="none" stroke-miterlimit="79.8403193612775" fill="url(#LinearGradient_4)"/>
      <path d="M 342.108,272.55 C 328.908,266.55 315.516,263.55 301.908,263.55 C 298.308,263.55 290.904,265.146 279.708,268.35 L 278.508,268.35 C 280.104,271.146 285.504,272.55 294.708,272.55 C 307.104,272.55 318.708,275.346 329.508,280.95 C 334.308,283.746 338.1,285.954 340.908,287.55 C 345.708,290.346 349.512,291.942 352.308,292.35 C 359.1,293.55 364.908,290.55 369.708,283.35 C 358.908,280.554 349.704,276.942 342.108,272.55 Z" stroke-width="12" stroke-linejoin="miter" marker-start="none" marker-end="none" stroke-miterlimit="79.8403193612775" fill="url(#LinearGradient_5)"/>
      <path d="M 342.108,272.55 C 328.908,266.55 315.516,263.55 301.908,263.55 C 298.308,263.55 290.904,265.146 279.708,268.35 L 278.508,268.35 C 280.104,271.146 285.504,272.55 294.708,272.55 C 307.104,272.55 318.708,275.346 329.508,280.95 C 334.308,283.746 338.1,285.954 340.908,287.55 C 345.708,290.346 349.512,291.942 352.308,292.35 C 359.1,293.55 364.908,290.55 369.708,283.35 C 358.908,280.554 349.704,276.942 342.108,272.55 Z" stroke-width="12" stroke-linejoin="miter" marker-start="none" marker-end="none" stroke-miterlimit="79.8403193612775" fill="url(#LinearGradient_6)"/>
      <path d="M 342.108,272.55 C 328.908,266.55 315.516,263.55 301.908,263.55 C 298.308,263.55 290.904,265.146 279.708,268.35 L 278.508,268.35 C 280.104,271.146 285.504,272.55 294.708,272.55 C 307.104,272.55 318.708,275.346 329.508,280.95 C 334.308,283.746 338.1,285.954 340.908,287.55 C 345.708,290.346 349.512,291.942 352.308,292.35 C 359.1,293.55 364.908,290.55 369.708,283.35 C 358.908,280.554 349.704,276.942 342.108,272.55 Z" stroke-width="12" stroke-linejoin="miter" marker-start="none" marker-end="none" stroke-miterlimit="79.8403193612775" fill="url(#LinearGradient_7)"/>
      <path d="M 444.108,380.55 C 447.312,384.546 450.108,386.946 452.508,387.75 L 453.108,388.95 L 453.708,388.95 C 454.908,365.754 452.1,350.754 445.308,343.95 C 443.304,341.55 440.508,339.15 436.907,336.75 C 434.111,334.35 432.312,331.35 431.507,327.75 C 431.099,324.954 430.703,321.75 430.307,318.15 C 429.911,315.354 428.099,312.75 424.907,310.35 L 412.307,301.95 C 406.703,303.954 402.911,305.946 400.907,307.95 C 404.507,314.754 407.315,319.554 409.307,322.35 C 412.511,327.546 416.303,331.554 420.707,334.35 C 426.707,338.346 430.499,343.35 432.107,349.35 C 434.111,360.15 432.107,366.75 426.107,369.15 L 430.308,371.55 L 432.708,373.35 L 444.108,380.55 Z" stroke-width="12" stroke-linejoin="miter" marker-start="none" marker-end="none" stroke-miterlimit="79.8403193612775" fill="url(#LinearGradient_8)"/>
      <path d="M 444.108,380.55 C 447.312,384.546 450.108,386.946 452.508,387.75 L 453.108,388.95 L 453.708,388.95 C 454.908,365.754 452.1,350.754 445.308,343.95 C 443.304,341.55 440.508,339.15 436.907,336.75 C 434.111,334.35 432.312,331.35 431.507,327.75 C 431.099,324.954 430.703,321.75 430.307,318.15 C 429.911,315.354 428.099,312.75 424.907,310.35 L 412.307,301.95 C 406.703,303.954 402.911,305.946 400.907,307.95 C 404.507,314.754 407.315,319.554 409.307,322.35 C 412.511,327.546 416.303,331.554 420.707,334.35 C 426.707,338.346 430.499,343.35 432.107,349.35 C 434.111,360.15 432.107,366.75 426.107,369.15 L 430.308,371.55 L 432.708,373.35 L 444.108,380.55 Z" stroke-width="12" stroke-linejoin="miter" marker-start="none" marker-end="none" stroke-miterlimit="79.8403193612775" fill="url(#LinearGradient_9)"/>
      <path d="M 444.108,380.55 C 447.312,384.546 450.108,386.946 452.508,387.75 L 453.108,388.95 L 453.708,388.95 C 454.908,365.754 452.1,350.754 445.308,343.95 C 443.304,341.55 440.508,339.15 436.907,336.75 C 434.111,334.35 432.312,331.35 431.507,327.75 C 431.099,324.954 430.703,321.75 430.307,318.15 C 429.911,315.354 428.099,312.75 424.907,310.35 L 412.307,301.95 C 406.703,303.954 402.911,305.946 400.907,307.95 C 404.507,314.754 407.315,319.554 409.307,322.35 C 412.511,327.546 416.303,331.554 420.707,334.35 C 426.707,338.346 430.499,343.35 432.107,349.35 C 434.111,360.15 432.107,366.75 426.107,369.15 L 430.308,371.55 L 432.708,373.35 L 444.108,380.55 Z" stroke-width="12" stroke-linejoin="miter" marker-start="none" marker-end="none" stroke-miterlimit="79.8403193612775" fill="url(#LinearGradient_10)"/>
      <g id="ClipView_1">
       <path d="M 214.908,412.351 L 324.852,412.351 L 324.852,498.487 L 214.908,498.487 L 214.908,412.351"/>
       <clipPath id="ClipPath_1">
        <path d="M 214.908,412.351 L 214.908,498.487 L 324.852,498.487 L 324.852,412.351 L 214.908,412.351 Z"/>
       </clipPath>
       <g clip-path="url(#ClipPath_1)">
        <path d="M 278.64,487.687 C 283.836,486.487 291.636,486.283 302.04,487.087 C 312.444,487.891 320.04,487.891 324.84,487.087 C 306.036,480.295 287.04,478.291 267.84,481.087 C 256.236,481.891 248.844,482.083 245.64,481.687 C 244.836,480.091 244.044,477.283 243.24,473.287 C 242.436,470.083 240.84,467.287 238.44,464.887 C 236.436,462.883 233.04,460.291 228.24,457.087 C 225.036,453.883 224.04,450.091 225.24,445.687 C 228.036,445.687 232.044,444.883 237.24,443.287 C 242.448,441.283 246.24,440.287 248.64,440.287 C 251.844,439.891 256.644,440.287 263.04,441.487 C 269.448,442.291 274.248,442.483 277.44,442.087 C 271.836,439.687 267.84,438.091 265.44,437.287 C 261.444,435.283 258.444,432.487 256.44,428.887 C 254.436,424.483 253.44,419.083 253.44,412.687 C 249.444,411.487 244.644,413.479 239.04,418.687 C 234.24,423.091 229.644,423.691 225.24,420.487 L 224.64,419.887 C 223.44,422.287 222.636,425.287 222.24,428.887 C 221.844,434.491 221.64,437.683 221.64,438.487 C 219.636,436.483 218.64,433.087 218.64,428.287 C 215.04,434.287 214.044,440.887 215.64,448.087 C 216.84,454.891 219.84,460.891 224.64,466.087 C 221.04,470.887 219.84,481.687 221.04,498.487 C 227.04,494.887 235.248,492.283 245.64,490.687 L 260.64,490.687 C 265.044,490.687 271.044,489.691 278.64,487.687 Z" stroke-width="12" stroke-linejoin="miter" marker-start="none" marker-end="none" stroke-miterlimit="79.8403193612775" fill="url(#LinearGradient_11)"/>
       </g>
      </g>
      <path d="M 219.108,342.15 C 219.108,346.95 220.104,350.358 222.108,352.35 C 222.108,351.546 222.312,348.354 222.708,342.75 C 223.104,339.15 223.908,336.15 225.108,333.75 L 224.508,333.75 L 219.708,340.95 L 219.108,342.15 Z" stroke-width="12" stroke-linejoin="miter" marker-start="none" marker-end="none" stroke-miterlimit="79.8403193612775" fill="url(#LinearGradient_12)"/>
      <g id="ClipView_2">
       <path d="M 219.109,352.351 L 225.109,352.351 L 225.109,370.951 L 219.109,370.951 L 219.109,352.351"/>
       <clipPath id="ClipPath_2">
        <path d="M 219.109,352.351 L 219.109,370.951 L 225.109,370.951 L 225.109,352.351 L 219.109,352.351 Z"/>
       </clipPath>
       <g clip-path="url(#ClipPath_2)">
        <path d="M 219.109,360.751 C 219.109,365.551 220.105,368.947 222.109,370.951 C 222.109,370.147 222.313,366.955 222.709,361.351 C 223.117,357.751 223.909,354.751 225.109,352.351 L 224.509,352.351 L 219.709,359.551 L 219.109,360.751 Z" stroke-width="12" stroke-linejoin="miter" marker-start="none" marker-end="none" stroke-miterlimit="79.8403193612775" fill="url(#LinearGradient_13)"/>
       </g>
      </g>
     </g>
    </g>
   </g>
  </g>
 </g>
</svg>
