<?xml version="1.0" encoding="UTF-8"?>
<svg viewBox="0 0 376.93 191.22" xmlns="http://www.w3.org/2000/svg" xmlns:xlink="http://www.w3.org/1999/xlink">
 <defs>
  <linearGradient id="a">
   <stop stop-color="#eeeeec" offset="0"/>
   <stop stop-color="#eeeeec" stop-opacity="0" offset="1"/>
  </linearGradient>
  <linearGradient id="j" x1=".44115" x2=".46215" y1=".095405" y2="1.5451" xlink:href="#a"/>
  <linearGradient id="k" x1=".55885" x2=".53785" y1=".095407" y2="1.545" xlink:href="#a"/>
  <linearGradient id="i" x1=".41065" x2=".56695" y1=".081511" y2="1.4864" xlink:href="#a"/>
  <linearGradient id="h" x1=".12157" x2=".8461" y1=".15169" y2=".73232">
   <stop stop-color="#fcfcfb" offset="0"/>
   <stop stop-color="#fcfcfb" stop-opacity="0" offset="1"/>
  </linearGradient>
  <linearGradient id="g" x1=".46259" x2=".56176" y1=".059668" y2=".66702">
   <stop stop-color="#fff" offset="0"/>
   <stop stop-color="#fff" stop-opacity="0" offset="1"/>
  </linearGradient>
 </defs>
 <g stroke-linecap="round" stroke-linejoin="bevel">
  <path d="m273.24 145.73c0.00766 24.02-37.193 43.494-83.085 43.494s-83.093-19.474-83.085-43.494c-0.007645-24.02 37.193-43.494 83.085-43.494s83.093 19.474 83.085 43.494z" fill="#5d3667" stroke-width=".5"/>
  <g stroke-width="2">
   <path d="m190.28 51.378c-104.45 0-162.07 30.62-188.49 54.993 55.446 39.956 119.74 53.561 188.49 52.993 68.386 0.37207 126.86-18.347 187.44-52.493-26.42-24.372-82.993-55.493-187.44-55.493z" fill="#ad7fa8"/>
   <g fill-opacity=".98">
    <path d="m1 106.43c56.582 37.645 119.3 54.865 187.69 54.493 0.016052-1.22e-4 0.032043 1.22e-4 0.048096 0 68.386 0.37207 128.61-19.847 189.19-53.993-47.401 10.596-127.54 40.033-183.81 36.925-1.8277 0-3.6302-0.011353-5.4329-0.048096-1.7869 0.036133-3.5735 0.048096-5.3848 0.048096-56.269 3.1083-134.9-26.828-182.31-37.425z" fill="#5c3566"/>
    <path d="m277.69 77.505c0 12.719-38.27 23.03-85.478 23.03s-85.478-10.311-85.478-23.03c-3.1e-5 -12.719 38.27-23.03 85.478-23.03s85.478 10.311 85.478 23.03z" fill="#d3d7cf"/>
    <path d="m192.2 80.715c-29.909 0-54.189 6.5214-54.377 14.568 14.778 3.2863 33.734 5.2407 54.377 5.2406 20.665 0 39.641-1.948 54.425-5.2406-0.18646-8.0471-24.515-14.568-54.425-14.568z" fill="#555753"/>
    <path d="m277.96 65.933c0 37.499-34.672 40.112-86.255 40.76-56.422 0.69898-87.504-5.8745-84.701-40.76 2.9941-37.265 38.294-67.933 85.478-67.933s85.478 30.434 85.478 67.933z" fill="#eeeeec" opacity=".739"/>
   </g>
   <path d="m263.18 57.097c0 31.517-17.996-33.442-71.655-16.171-62.249 20.037-73.125 31.203-72.03 16.171 2.2829-31.338 32.185-57.097 71.842-57.097s71.842 25.579 71.842 57.097z" fill="url(#g)" opacity=".739"/>
  </g>
 </g>
 <path d="m123.48 151.03z" fill="none" stroke="#000"/>
 <g stroke-linecap="round" stroke-linejoin="bevel">
  <path d="m130.16 57.699c-1.2814 0.21738-1.7913 1.5414-7.375 0.84375-32.245 0.48044-77.746 21.525-108.91 46.656 4.5173 0.70459 8.6096 1.4571 12.406 2.3125 29.172-22.517 69.332-41.146 99.875-43.656 3.5219-1.1233 7.2083-2.2017 11.156-3.1875-4.6945-2.6387-6.1596-3.1378-7.1562-2.9688zm-78.812 60.062c0.094639 0.062065 0.18652 0.12476 0.28125 0.1875 0.011028-0.009644 0.020222-0.021599 0.03125-0.03125-0.10529-0.049194-0.20705-0.10774-0.3125-0.15625z" fill="url(#h)" stroke-width="2"/>
  <g stroke-width="5">
   <path d="m202.16 126.81c0 3.866-7.835 7-17.5 7s-17.5-3.134-17.5-7 7.835-7 17.5-7 17.5 3.134 17.5 7z" fill="#ff7f00"/>
   <path d="m81.592 109.79c-0.86732 3.2996-8.2576 4.2167-16.507 2.0484-8.249-2.1683-14.233-6.601-13.366-9.9005 0.86731-3.2996 8.2576-4.2167 16.507-2.0484 8.249 2.1683 14.233 6.601 13.366 9.9006z" fill="#0ff"/>
   <path d="m194.14 125.75c0 2.6139-9.9345-7.614-11.838 4.7353-0.99558 6.4584-11.838-2.1214-11.838-4.7353 0-2.6138 5.3035-4.7352 11.838-4.7352 6.5347 0 11.838 2.1214 11.838 4.7352z" fill="url(#i)"/>
   <path d="m76.045 105.95c-0.44204 2.1788-7.4307-8.1155-11.19 1.8393-1.966 5.2062-10.03-3.8761-9.5882-6.055 0.44206-2.1788 5.4551-3.0028 11.19-1.8393 5.7348 1.1635 10.03 3.8762 9.5882 6.0549z" fill="url(#j)"/>
   <path d="m307.69 111.2c0.86734 3.2996 8.2576 4.2167 16.507 2.0484 8.249-2.1683 14.233-6.601 13.366-9.9005-0.86731-3.2996-8.2576-4.2167-16.507-2.0484-8.249 2.1683-14.233 6.601-13.366 9.9005z" fill="#ff7f00"/>
   <path d="m313.24 107.37c0.44205 2.1788 7.4307-8.1156 11.19 1.8393 1.9659 5.2062 10.03-3.8762 9.5883-6.0549-0.44208-2.1788-5.4551-3.0029-11.19-1.8394-5.7348 1.1636-10.03 3.8762-9.5883 6.055z" fill="url(#k)"/>
  </g>
  <g fill="#2e3436">
   <path d="m271.72 151.44c-18.738 4.2399-45.906 10.046-57.719 7.9375 17.5 10 0 26.906 0 26.906 30.013-4.8216 52.808-18.278 57.719-34.844z" stroke-width=".5"/>
   <path d="m373.54 108.91c-25.152 5.6226-47.506 14.243-82.636 23.121 4.5179 3.2062-4.0709 9.0195-1.6663 13.059 28.512-9.166 56.47-20.493 84.302-36.18z" stroke-width="2"/>
  </g>
 </g>
</svg>
